<svg xmlns="http://www.w3.org/2000/svg" xmlns:xlink="http://www.w3.org/1999/xlink" width="288" zoomAndPan="magnify" viewBox="0 0 216 36.000001" height="48" preserveAspectRatio="xMidYMid meet" version="1.0"><defs><g/><clipPath id="c27fa55bb8"><path d="M 18.734375 3.6875 L 197.128906 3.6875 L 197.128906 31.523438 L 18.734375 31.523438 Z M 18.734375 3.6875 " clip-rule="nonzero"/></clipPath><clipPath id="a966b4d9e9"><path d="M 197.027344 11.816406 L 197.027344 23.503906 C 197.027344 25.628906 196.183594 27.671875 194.679688 29.175781 C 193.175781 30.679688 191.132812 31.523438 189.007812 31.523438 L 26.863281 31.523438 C 24.738281 31.523438 22.695312 30.679688 21.191406 29.175781 C 19.6875 27.671875 18.84375 25.628906 18.84375 23.503906 L 18.84375 11.816406 C 18.84375 9.691406 19.6875 7.648438 21.191406 6.144531 C 22.695312 4.640625 24.738281 3.796875 26.863281 3.796875 L 189.007812 3.796875 C 191.132812 3.796875 193.175781 4.640625 194.679688 6.144531 C 196.183594 7.648438 197.027344 9.691406 197.027344 11.816406 Z M 197.027344 11.816406 " clip-rule="nonzero"/></clipPath><clipPath id="83500e520b"><path d="M 0.796875 0.734375 L 179.128906 0.734375 L 179.128906 28.523438 L 0.796875 28.523438 Z M 0.796875 0.734375 " clip-rule="nonzero"/></clipPath><clipPath id="97d69ab80b"><path d="M 179.027344 8.816406 L 179.027344 20.503906 C 179.027344 22.628906 178.183594 24.671875 176.679688 26.175781 C 175.175781 27.679688 173.132812 28.523438 171.007812 28.523438 L 8.863281 28.523438 C 6.738281 28.523438 4.695312 27.679688 3.191406 26.175781 C 1.6875 24.671875 0.84375 22.628906 0.84375 20.503906 L 0.84375 8.816406 C 0.84375 6.691406 1.6875 4.648438 3.191406 3.144531 C 4.695312 1.640625 6.738281 0.796875 8.863281 0.796875 L 171.007812 0.796875 C 173.132812 0.796875 175.175781 1.640625 176.679688 3.144531 C 178.183594 4.648438 179.027344 6.691406 179.027344 8.816406 Z M 179.027344 8.816406 " clip-rule="nonzero"/></clipPath><clipPath id="a5bc53a5a2"><rect x="0" width="180" y="0" height="29"/></clipPath><clipPath id="6ebeb622c7"><path d="M 34.5625 14 L 56 14 L 56 16 L 34.5625 16 Z M 34.5625 14 " clip-rule="nonzero"/></clipPath><clipPath id="ebaeaf6909"><path d="M 34.5625 17 L 56 17 L 56 18 L 34.5625 18 Z M 34.5625 17 " clip-rule="nonzero"/></clipPath><clipPath id="93946fcbbf"><path d="M 34.5625 19 L 56 19 L 56 20 L 34.5625 20 Z M 34.5625 19 " clip-rule="nonzero"/></clipPath><clipPath id="1a446bb5cb"><path d="M 34.5625 21 L 56 21 L 56 23 L 34.5625 23 Z M 34.5625 21 " clip-rule="nonzero"/></clipPath><clipPath id="b336858208"><path d="M 34.5625 12 L 56 12 L 56 25 L 34.5625 25 Z M 34.5625 12 " clip-rule="nonzero"/></clipPath><clipPath id="6e6886d1fa"><path d="M 35 13 L 57.183594 13 L 57.183594 26 L 35 26 Z M 35 13 " clip-rule="nonzero"/></clipPath><clipPath id="4dc2ce4f07"><path d="M 34.5625 9 L 56 9 L 56 14 L 34.5625 14 Z M 34.5625 9 " clip-rule="nonzero"/></clipPath></defs><g clip-path="url(#c27fa55bb8)"><g clip-path="url(#a966b4d9e9)"><g transform="matrix(1, 0, 0, 1, 18, 3)"><g clip-path="url(#a5bc53a5a2)"><g clip-path="url(#83500e520b)"><g clip-path="url(#97d69ab80b)"><path fill="#00aa50" d="M 0.84375 0.796875 L 179.019531 0.796875 L 179.019531 28.523438 L 0.84375 28.523438 Z M 0.84375 0.796875 " fill-opacity="1" fill-rule="nonzero"/></g></g></g></g></g></g><g fill="#d9d9d9" fill-opacity="1"><g transform="translate(73.439655, 20.866092)"><g><path d="M 4.0625 -7.8125 C 5.039062 -7.8125 5.84375 -7.613281 6.46875 -7.21875 C 7.101562 -6.820312 7.429688 -6.234375 7.453125 -5.453125 L 7.453125 -5.3125 L 5.140625 -5.3125 L 5.140625 -5.359375 C 5.140625 -5.585938 5.054688 -5.773438 4.890625 -5.921875 C 4.722656 -6.066406 4.472656 -6.140625 4.140625 -6.140625 C 3.816406 -6.140625 3.566406 -6.09375 3.390625 -6 C 3.210938 -5.90625 3.125 -5.785156 3.125 -5.640625 C 3.125 -5.441406 3.242188 -5.289062 3.484375 -5.1875 C 3.722656 -5.09375 4.109375 -4.992188 4.640625 -4.890625 C 5.253906 -4.765625 5.757812 -4.632812 6.15625 -4.5 C 6.5625 -4.363281 6.910156 -4.132812 7.203125 -3.8125 C 7.503906 -3.5 7.65625 -3.078125 7.65625 -2.546875 C 7.65625 -1.640625 7.347656 -0.960938 6.734375 -0.515625 C 6.128906 -0.078125 5.3125 0.140625 4.28125 0.140625 C 3.082031 0.140625 2.148438 -0.0625 1.484375 -0.46875 C 0.816406 -0.875 0.484375 -1.585938 0.484375 -2.609375 L 2.8125 -2.609375 C 2.8125 -2.210938 2.910156 -1.945312 3.109375 -1.8125 C 3.316406 -1.6875 3.632812 -1.625 4.0625 -1.625 C 4.375 -1.625 4.628906 -1.65625 4.828125 -1.71875 C 5.035156 -1.789062 5.140625 -1.929688 5.140625 -2.140625 C 5.140625 -2.328125 5.023438 -2.46875 4.796875 -2.5625 C 4.566406 -2.65625 4.195312 -2.753906 3.6875 -2.859375 C 3.0625 -2.992188 2.539062 -3.132812 2.125 -3.28125 C 1.71875 -3.425781 1.363281 -3.664062 1.0625 -4 C 0.757812 -4.332031 0.609375 -4.785156 0.609375 -5.359375 C 0.609375 -6.203125 0.929688 -6.820312 1.578125 -7.21875 C 2.234375 -7.613281 3.0625 -7.8125 4.0625 -7.8125 Z M 4.0625 -7.8125 "/></g></g></g><g fill="#d9d9d9" fill-opacity="1"><g transform="translate(81.499073, 20.866092)"><g><path d="M 0.828125 -7.6875 L 7.46875 -7.6875 L 7.46875 -5.84375 L 3.296875 -5.84375 L 3.296875 -4.78125 L 6.875 -4.78125 L 6.875 -3.015625 L 3.296875 -3.015625 L 3.296875 -1.84375 L 7.546875 -1.84375 L 7.546875 0 L 0.828125 0 Z M 0.828125 -7.6875 "/></g></g></g><g fill="#d9d9d9" fill-opacity="1"><g transform="translate(89.558491, 20.866092)"><g><path d="M 5.25 -5.71875 L 5.25 0 L 2.78125 0 L 2.78125 -5.71875 L 0.25 -5.71875 L 0.25 -7.6875 L 7.765625 -7.6875 L 7.765625 -5.71875 Z M 5.25 -5.71875 "/></g></g></g><g fill="#d9d9d9" fill-opacity="1"><g transform="translate(97.617909, 20.866092)"><g><path d="M 8.484375 -3.09375 C 8.484375 -2.039062 8.148438 -1.238281 7.484375 -0.6875 C 6.816406 -0.132812 5.875 0.140625 4.65625 0.140625 C 3.4375 0.140625 2.492188 -0.132812 1.828125 -0.6875 C 1.160156 -1.238281 0.828125 -2.039062 0.828125 -3.09375 L 0.828125 -7.6875 L 3.296875 -7.6875 L 3.296875 -3.125 C 3.296875 -2.695312 3.410156 -2.351562 3.640625 -2.09375 C 3.867188 -1.832031 4.203125 -1.703125 4.640625 -1.703125 C 5.085938 -1.703125 5.425781 -1.832031 5.65625 -2.09375 C 5.894531 -2.351562 6.015625 -2.695312 6.015625 -3.125 L 6.015625 -7.6875 L 8.484375 -7.6875 Z M 8.484375 -3.09375 "/></g></g></g><g fill="#d9d9d9" fill-opacity="1"><g transform="translate(106.916385, 20.866092)"><g><path d="M 5.140625 -7.6875 C 5.617188 -7.6875 6.039062 -7.578125 6.40625 -7.359375 C 6.78125 -7.140625 7.070312 -6.835938 7.28125 -6.453125 C 7.488281 -6.066406 7.59375 -5.632812 7.59375 -5.15625 L 7.59375 -5.015625 C 7.59375 -4.535156 7.488281 -4.101562 7.28125 -3.71875 C 7.070312 -3.332031 6.78125 -3.03125 6.40625 -2.8125 C 6.039062 -2.59375 5.617188 -2.484375 5.140625 -2.484375 L 3.296875 -2.484375 L 3.296875 0 L 0.828125 0 L 0.828125 -7.6875 Z M 3.296875 -4.28125 L 4.3125 -4.28125 C 4.570312 -4.28125 4.765625 -4.347656 4.890625 -4.484375 C 5.023438 -4.617188 5.09375 -4.800781 5.09375 -5.03125 L 5.09375 -5.109375 C 5.09375 -5.347656 5.023438 -5.53125 4.890625 -5.65625 C 4.765625 -5.789062 4.570312 -5.859375 4.3125 -5.859375 L 3.296875 -5.859375 Z M 3.296875 -4.28125 "/></g></g></g><g fill="#d9d9d9" fill-opacity="1"><g transform="translate(114.975803, 20.866092)"><g/></g></g><g fill="#d9d9d9" fill-opacity="1"><g transform="translate(118.692964, 20.866092)"><g><path d="M 5.25 -5.71875 L 5.25 0 L 2.78125 0 L 2.78125 -5.71875 L 0.25 -5.71875 L 0.25 -7.6875 L 7.765625 -7.6875 L 7.765625 -5.71875 Z M 5.25 -5.71875 "/></g></g></g><g fill="#d9d9d9" fill-opacity="1"><g transform="translate(125.992677, 20.866092)"><g><path d="M 5.984375 0 L 5.65625 -1.078125 L 2.953125 -1.078125 L 2.640625 0 L 0.109375 0 L 2.921875 -7.6875 L 5.78125 -7.6875 L 8.59375 0 Z M 3.46875 -2.796875 L 5.140625 -2.796875 L 4.328125 -5.546875 L 4.296875 -5.546875 Z M 3.46875 -2.796875 "/></g></g></g><g fill="#d9d9d9" fill-opacity="1"><g transform="translate(134.677202, 20.866092)"><g><path d="M 6.03125 -7.6875 L 9.09375 -7.6875 L 6.328125 -4.53125 L 9.15625 0 L 6.234375 0 L 4.640625 -2.8125 L 3.296875 -1.71875 L 3.296875 0 L 0.828125 0 L 0.828125 -7.6875 L 3.296875 -7.6875 L 3.296875 -4.40625 Z M 6.03125 -7.6875 "/></g></g></g><g fill="#d9d9d9" fill-opacity="1"><g transform="translate(143.975678, 20.866092)"><g><path d="M 0.828125 -7.6875 L 7.46875 -7.6875 L 7.46875 -5.84375 L 3.296875 -5.84375 L 3.296875 -4.78125 L 6.875 -4.78125 L 6.875 -3.015625 L 3.296875 -3.015625 L 3.296875 -1.84375 L 7.546875 -1.84375 L 7.546875 0 L 0.828125 0 Z M 0.828125 -7.6875 "/></g></g></g><g fill="#d9d9d9" fill-opacity="1"><g transform="translate(152.035096, 20.866092)"><g><path d="M 4.640625 -7.8125 C 5.972656 -7.8125 7 -7.472656 7.71875 -6.796875 C 8.4375 -6.117188 8.796875 -5.132812 8.796875 -3.84375 C 8.796875 -2.550781 8.4375 -1.5625 7.71875 -0.875 C 7 -0.195312 5.972656 0.140625 4.640625 0.140625 C 3.316406 0.140625 2.296875 -0.195312 1.578125 -0.875 C 0.859375 -1.550781 0.5 -2.539062 0.5 -3.84375 C 0.5 -5.144531 0.859375 -6.128906 1.578125 -6.796875 C 2.296875 -7.472656 3.316406 -7.8125 4.640625 -7.8125 Z M 4.640625 -5.984375 C 4.117188 -5.984375 3.71875 -5.820312 3.4375 -5.5 C 3.164062 -5.175781 3.03125 -4.742188 3.03125 -4.203125 L 3.03125 -3.484375 C 3.03125 -2.941406 3.164062 -2.507812 3.4375 -2.1875 C 3.71875 -1.863281 4.117188 -1.703125 4.640625 -1.703125 C 5.171875 -1.703125 5.578125 -1.863281 5.859375 -2.1875 C 6.140625 -2.507812 6.28125 -2.941406 6.28125 -3.484375 L 6.28125 -4.203125 C 6.28125 -4.742188 6.140625 -5.175781 5.859375 -5.5 C 5.578125 -5.820312 5.171875 -5.984375 4.640625 -5.984375 Z M 4.640625 -5.984375 "/></g></g></g><g fill="#d9d9d9" fill-opacity="1"><g transform="translate(161.333571, 20.866092)"><g><path d="M 0.828125 -7.6875 L 7.03125 -7.6875 L 7.03125 -5.84375 L 3.296875 -5.84375 L 3.296875 -4.53125 L 6.515625 -4.53125 L 6.515625 -2.765625 L 3.296875 -2.765625 L 3.296875 0 L 0.828125 0 Z M 0.828125 -7.6875 "/></g></g></g><g fill="#d9d9d9" fill-opacity="1"><g transform="translate(168.77905, 20.866092)"><g><path d="M 0.828125 -7.6875 L 7.03125 -7.6875 L 7.03125 -5.84375 L 3.296875 -5.84375 L 3.296875 -4.53125 L 6.515625 -4.53125 L 6.515625 -2.765625 L 3.296875 -2.765625 L 3.296875 0 L 0.828125 0 Z M 0.828125 -7.6875 "/></g></g></g><g clip-path="url(#6ebeb622c7)"><path fill="#d9d9d9" d="M 55.324219 15.410156 L 34.867188 15.410156 C 34.703125 15.410156 34.5625 15.277344 34.5625 15.105469 C 34.5625 14.933594 34.703125 14.800781 34.867188 14.800781 L 55.324219 14.800781 C 55.496094 14.800781 55.636719 14.933594 55.636719 15.105469 C 55.636719 15.277344 55.496094 15.410156 55.324219 15.410156 Z M 55.324219 15.410156 " fill-opacity="1" fill-rule="evenodd"/></g><g clip-path="url(#ebaeaf6909)"><path fill="#d9d9d9" d="M 55.324219 17.679688 L 34.867188 17.679688 C 34.703125 17.679688 34.5625 17.539062 34.5625 17.375 C 34.5625 17.203125 34.703125 17.0625 34.867188 17.0625 L 55.324219 17.0625 C 55.496094 17.0625 55.636719 17.203125 55.636719 17.375 C 55.636719 17.539062 55.496094 17.679688 55.324219 17.679688 Z M 55.324219 17.679688 " fill-opacity="1" fill-rule="evenodd"/></g><g clip-path="url(#93946fcbbf)"><path fill="#d9d9d9" d="M 55.324219 19.949219 L 34.867188 19.949219 C 34.703125 19.949219 34.5625 19.808594 34.5625 19.636719 C 34.5625 19.472656 34.703125 19.332031 34.867188 19.332031 L 55.324219 19.332031 C 55.496094 19.332031 55.636719 19.472656 55.636719 19.636719 C 55.636719 19.808594 55.496094 19.949219 55.324219 19.949219 Z M 55.324219 19.949219 " fill-opacity="1" fill-rule="evenodd"/></g><g clip-path="url(#1a446bb5cb)"><path fill="#d9d9d9" d="M 55.324219 22.210938 L 34.867188 22.210938 C 34.703125 22.210938 34.5625 22.078125 34.5625 21.90625 C 34.5625 21.734375 34.703125 21.601562 34.867188 21.601562 L 55.324219 21.601562 C 55.496094 21.601562 55.636719 21.734375 55.636719 21.90625 C 55.636719 22.078125 55.496094 22.210938 55.324219 22.210938 Z M 55.324219 22.210938 " fill-opacity="1" fill-rule="evenodd"/></g><g clip-path="url(#b336858208)"><path fill="#d9d9d9" d="M 55.324219 24.277344 L 34.867188 24.277344 C 34.703125 24.277344 34.5625 24.136719 34.5625 23.96875 L 34.5625 13.046875 C 34.5625 12.875 34.703125 12.734375 34.867188 12.734375 L 55.324219 12.734375 C 55.496094 12.734375 55.636719 12.875 55.636719 13.046875 L 55.636719 23.96875 C 55.636719 24.136719 55.496094 24.277344 55.324219 24.277344 Z M 35.179688 23.660156 L 55.019531 23.660156 L 55.019531 13.351562 L 35.179688 13.351562 Z M 35.179688 23.660156 " fill-opacity="1" fill-rule="evenodd"/></g><g clip-path="url(#6e6886d1fa)"><path fill="#d9d9d9" d="M 56.707031 25.542969 L 36.035156 25.542969 C 35.863281 25.542969 35.722656 25.402344 35.722656 25.230469 L 35.722656 23.96875 C 35.722656 23.800781 35.863281 23.660156 36.035156 23.660156 L 55.019531 23.660156 L 55.019531 14.089844 C 55.019531 13.921875 55.160156 13.78125 55.324219 13.78125 L 56.707031 13.78125 C 56.875 13.78125 57.011719 13.921875 57.011719 14.089844 L 57.011719 25.230469 C 57.011719 25.402344 56.875 25.542969 56.707031 25.542969 Z M 36.339844 24.925781 L 56.398438 24.925781 L 56.398438 14.398438 L 55.636719 14.398438 L 55.636719 23.96875 C 55.636719 24.136719 55.496094 24.277344 55.324219 24.277344 L 36.339844 24.277344 Z M 36.339844 24.925781 " fill-opacity="1" fill-rule="evenodd"/></g><path fill="#d9d9d9" d="M 37.601562 24.277344 C 37.433594 24.277344 37.292969 24.136719 37.292969 23.96875 L 37.292969 13.046875 C 37.292969 12.875 37.433594 12.734375 37.601562 12.734375 C 37.769531 12.734375 37.910156 12.875 37.910156 13.046875 L 37.910156 23.96875 C 37.910156 24.136719 37.769531 24.277344 37.601562 24.277344 Z M 37.601562 24.277344 " fill-opacity="1" fill-rule="evenodd"/><path fill="#d9d9d9" d="M 40.097656 24.277344 C 39.933594 24.277344 39.792969 24.136719 39.792969 23.96875 L 39.792969 13.046875 C 39.792969 12.875 39.933594 12.734375 40.097656 12.734375 C 40.269531 12.734375 40.410156 12.875 40.410156 13.046875 L 40.410156 23.96875 C 40.410156 24.136719 40.269531 24.277344 40.097656 24.277344 Z M 40.097656 24.277344 " fill-opacity="1" fill-rule="evenodd"/><path fill="#d9d9d9" d="M 42.601562 24.277344 C 42.429688 24.277344 42.289062 24.136719 42.289062 23.96875 L 42.289062 13.046875 C 42.289062 12.875 42.429688 12.734375 42.601562 12.734375 C 42.765625 12.734375 42.90625 12.875 42.90625 13.046875 L 42.90625 23.96875 C 42.90625 24.136719 42.765625 24.277344 42.601562 24.277344 Z M 42.601562 24.277344 " fill-opacity="1" fill-rule="evenodd"/><path fill="#d9d9d9" d="M 45.097656 24.277344 C 44.929688 24.277344 44.792969 24.136719 44.792969 23.96875 L 44.792969 13.046875 C 44.792969 12.875 44.929688 12.734375 45.097656 12.734375 C 45.269531 12.734375 45.40625 12.875 45.40625 13.046875 L 45.40625 23.96875 C 45.40625 24.136719 45.269531 24.277344 45.097656 24.277344 Z M 45.097656 24.277344 " fill-opacity="1" fill-rule="evenodd"/><path fill="#d9d9d9" d="M 47.597656 24.277344 C 47.425781 24.277344 47.292969 24.136719 47.292969 23.96875 L 47.292969 13.046875 C 47.292969 12.875 47.425781 12.734375 47.597656 12.734375 C 47.769531 12.734375 47.902344 12.875 47.902344 13.046875 L 47.902344 23.96875 C 47.902344 24.136719 47.769531 24.277344 47.597656 24.277344 Z M 47.597656 24.277344 " fill-opacity="1" fill-rule="evenodd"/><path fill="#d9d9d9" d="M 50.09375 24.277344 C 49.929688 24.277344 49.789062 24.136719 49.789062 23.96875 L 49.789062 13.046875 C 49.789062 12.875 49.929688 12.734375 50.09375 12.734375 C 50.265625 12.734375 50.40625 12.875 50.40625 13.046875 L 50.40625 23.96875 C 50.40625 24.136719 50.265625 24.277344 50.09375 24.277344 Z M 50.09375 24.277344 " fill-opacity="1" fill-rule="evenodd"/><path fill="#d9d9d9" d="M 52.597656 24.277344 C 52.425781 24.277344 52.289062 24.136719 52.289062 23.96875 L 52.289062 13.046875 C 52.289062 12.875 52.425781 12.734375 52.597656 12.734375 C 52.765625 12.734375 52.902344 12.875 52.902344 13.046875 L 52.902344 23.96875 C 52.902344 24.136719 52.765625 24.277344 52.597656 24.277344 Z M 52.597656 24.277344 " fill-opacity="1" fill-rule="evenodd"/><g clip-path="url(#4dc2ce4f07)"><path fill="#d9d9d9" d="M 55.324219 13.351562 L 34.867188 13.351562 C 34.703125 13.351562 34.5625 13.210938 34.5625 13.046875 L 34.5625 9.617188 C 34.5625 9.445312 34.703125 9.304688 34.867188 9.304688 L 55.324219 9.304688 C 55.496094 9.304688 55.636719 9.445312 55.636719 9.617188 L 55.636719 13.046875 C 55.636719 13.214844 55.496094 13.351562 55.324219 13.351562 Z M 35.179688 12.734375 L 55.019531 12.734375 L 55.019531 9.921875 L 35.179688 9.921875 Z M 35.179688 12.734375 " fill-opacity="1" fill-rule="evenodd"/></g><path fill="#d9d9d9" d="M 47.101562 11.015625 L 36.148438 11.015625 C 35.976562 11.015625 35.84375 10.878906 35.84375 10.710938 C 35.84375 10.539062 35.976562 10.402344 36.148438 10.402344 L 47.101562 10.402344 C 47.273438 10.402344 47.410156 10.539062 47.410156 10.710938 C 47.410156 10.878906 47.273438 11.015625 47.101562 11.015625 Z M 47.101562 11.015625 " fill-opacity="1" fill-rule="evenodd"/><path fill="#d9d9d9" d="M 43.761719 12.257812 L 36.148438 12.257812 C 35.976562 12.257812 35.84375 12.117188 35.84375 11.953125 C 35.84375 11.78125 35.976562 11.640625 36.148438 11.640625 L 43.761719 11.640625 C 43.929688 11.640625 44.066406 11.78125 44.066406 11.953125 C 44.066406 12.117188 43.929688 12.257812 43.761719 12.257812 Z M 43.761719 12.257812 " fill-opacity="1" fill-rule="evenodd"/><path fill="#d9d9d9" d="M 54.046875 12.335938 L 48.523438 12.335938 C 48.359375 12.335938 48.21875 12.199219 48.21875 12.03125 L 48.21875 10.625 C 48.21875 10.460938 48.359375 10.320312 48.523438 10.320312 L 54.046875 10.320312 C 54.214844 10.320312 54.355469 10.460938 54.355469 10.625 L 54.355469 12.03125 C 54.355469 12.199219 54.214844 12.335938 54.046875 12.335938 Z M 48.835938 11.722656 L 53.742188 11.722656 L 53.742188 10.9375 L 48.835938 10.9375 Z M 48.835938 11.722656 " fill-opacity="1" fill-rule="evenodd"/></svg>