<svg xmlns="http://www.w3.org/2000/svg" xmlns:xlink="http://www.w3.org/1999/xlink" width="288" zoomAndPan="magnify" viewBox="0 0 216 215.999996" height="288" preserveAspectRatio="xMidYMid meet" version="1.0"><defs><g/><clipPath id="0f6db3d9f2"><path d="M 16.097656 7.082031 L 199.65625 7.082031 L 199.65625 185.003906 L 16.097656 185.003906 Z M 16.097656 7.082031 " clip-rule="nonzero"/></clipPath><clipPath id="9817a413a9"><path d="M 199.5 15.59375 L 199.5 176.761719 C 199.5 178.949219 198.632812 181.046875 197.085938 182.589844 C 195.539062 184.136719 193.441406 185.003906 191.257812 185.003906 L 24.609375 185.003906 C 22.421875 185.003906 20.328125 184.136719 18.78125 182.589844 C 17.234375 181.046875 16.367188 178.949219 16.367188 176.761719 L 16.367188 15.59375 C 16.367188 13.410156 17.234375 11.3125 18.78125 9.765625 C 20.328125 8.21875 22.421875 7.351562 24.609375 7.351562 L 191.257812 7.351562 C 193.441406 7.351562 195.539062 8.21875 197.085938 9.765625 C 198.632812 11.3125 199.5 13.410156 199.5 15.59375 Z M 199.5 15.59375 " clip-rule="nonzero"/></clipPath><clipPath id="48aa999e48"><path d="M 0.320312 0.199219 L 183.65625 0.199219 L 183.65625 178.003906 L 0.320312 178.003906 Z M 0.320312 0.199219 " clip-rule="nonzero"/></clipPath><clipPath id="c877d6fbbb"><path d="M 183.5 8.59375 L 183.5 169.761719 C 183.5 171.949219 182.632812 174.046875 181.085938 175.589844 C 179.539062 177.136719 177.441406 178.003906 175.257812 178.003906 L 8.609375 178.003906 C 6.421875 178.003906 4.328125 177.136719 2.78125 175.589844 C 1.234375 174.046875 0.367188 171.949219 0.367188 169.761719 L 0.367188 8.59375 C 0.367188 6.410156 1.234375 4.3125 2.78125 2.765625 C 4.328125 1.21875 6.421875 0.351562 8.609375 0.351562 L 175.257812 0.351562 C 177.441406 0.351562 179.539062 1.21875 181.085938 2.765625 C 182.632812 4.3125 183.5 6.410156 183.5 8.59375 Z M 183.5 8.59375 " clip-rule="nonzero"/></clipPath><clipPath id="217c86a7b2"><rect x="0" width="184" y="0" height="179"/></clipPath><clipPath id="aa59646b55"><path d="M 32.523438 18 L 55 18 L 55 20 L 32.523438 20 Z M 32.523438 18 " clip-rule="nonzero"/></clipPath><clipPath id="04ad3f8d7b"><path d="M 32.523438 20 L 55 20 L 55 22 L 32.523438 22 Z M 32.523438 20 " clip-rule="nonzero"/></clipPath><clipPath id="0ff1ea35d2"><path d="M 32.523438 23 L 55 23 L 55 24 L 32.523438 24 Z M 32.523438 23 " clip-rule="nonzero"/></clipPath><clipPath id="eb861a5dbe"><path d="M 32.523438 25 L 55 25 L 55 27 L 32.523438 27 Z M 32.523438 25 " clip-rule="nonzero"/></clipPath><clipPath id="2bbbe9f112"><path d="M 32.523438 16 L 55 16 L 55 29 L 32.523438 29 Z M 32.523438 16 " clip-rule="nonzero"/></clipPath><clipPath id="c30218dd92"><path d="M 33 17 L 55.773438 17 L 55.773438 30 L 33 30 Z M 33 17 " clip-rule="nonzero"/></clipPath><clipPath id="4648660ac2"><path d="M 32.523438 13 L 55 13 L 55 18 L 32.523438 18 Z M 32.523438 13 " clip-rule="nonzero"/></clipPath><clipPath id="3b5dd34a1f"><path d="M 32.523438 53.925781 L 45.632812 53.925781 L 45.632812 67.035156 L 32.523438 67.035156 Z M 32.523438 53.925781 " clip-rule="nonzero"/></clipPath><clipPath id="55e54b95a6"><path d="M 39.078125 53.925781 C 35.457031 53.925781 32.523438 56.859375 32.523438 60.480469 C 32.523438 64.101562 35.457031 67.035156 39.078125 67.035156 C 42.699219 67.035156 45.632812 64.101562 45.632812 60.480469 C 45.632812 56.859375 42.699219 53.925781 39.078125 53.925781 Z M 39.078125 53.925781 " clip-rule="nonzero"/></clipPath><clipPath id="61b596324f"><path d="M 0.523438 0.925781 L 13.632812 0.925781 L 13.632812 14.035156 L 0.523438 14.035156 Z M 0.523438 0.925781 " clip-rule="nonzero"/></clipPath><clipPath id="c1ad72a26f"><path d="M 7.078125 0.925781 C 3.457031 0.925781 0.523438 3.859375 0.523438 7.480469 C 0.523438 11.101562 3.457031 14.035156 7.078125 14.035156 C 10.699219 14.035156 13.632812 11.101562 13.632812 7.480469 C 13.632812 3.859375 10.699219 0.925781 7.078125 0.925781 Z M 7.078125 0.925781 " clip-rule="nonzero"/></clipPath><clipPath id="0eed37b865"><rect x="0" width="14" y="0" height="15"/></clipPath><clipPath id="3293e57975"><path d="M 32.523438 82.035156 L 45.632812 82.035156 L 45.632812 95.144531 L 32.523438 95.144531 Z M 32.523438 82.035156 " clip-rule="nonzero"/></clipPath><clipPath id="98875de759"><path d="M 39.078125 82.035156 C 35.457031 82.035156 32.523438 84.96875 32.523438 88.589844 C 32.523438 92.210938 35.457031 95.144531 39.078125 95.144531 C 42.699219 95.144531 45.632812 92.210938 45.632812 88.589844 C 45.632812 84.96875 42.699219 82.035156 39.078125 82.035156 Z M 39.078125 82.035156 " clip-rule="nonzero"/></clipPath><clipPath id="73ace153d4"><path d="M 0.523438 0.0351562 L 13.632812 0.0351562 L 13.632812 13.144531 L 0.523438 13.144531 Z M 0.523438 0.0351562 " clip-rule="nonzero"/></clipPath><clipPath id="a054e6a2d3"><path d="M 7.078125 0.0351562 C 3.457031 0.0351562 0.523438 2.96875 0.523438 6.589844 C 0.523438 10.210938 3.457031 13.144531 7.078125 13.144531 C 10.699219 13.144531 13.632812 10.210938 13.632812 6.589844 C 13.632812 2.96875 10.699219 0.0351562 7.078125 0.0351562 Z M 7.078125 0.0351562 " clip-rule="nonzero"/></clipPath><clipPath id="f9feb713f5"><rect x="0" width="14" y="0" height="14"/></clipPath></defs><g clip-path="url(#0f6db3d9f2)"><g clip-path="url(#9817a413a9)"><g transform="matrix(1, 0, 0, 1, 16, 7)"><g clip-path="url(#217c86a7b2)"><g clip-path="url(#48aa999e48)"><g clip-path="url(#c877d6fbbb)"><path fill="#00aa50" d="M 0.367188 0.351562 L 183.386719 0.351562 L 183.386719 178.003906 L 0.367188 178.003906 Z M 0.367188 0.351562 " fill-opacity="1" fill-rule="nonzero"/></g></g></g></g></g></g><g fill="#d9d9d9" fill-opacity="1"><g transform="translate(72.479647, 24.894964)"><g><path d="M 4.171875 -8.046875 C 5.179688 -8.046875 6.007812 -7.835938 6.65625 -7.421875 C 7.3125 -7.015625 7.644531 -6.410156 7.65625 -5.609375 L 7.65625 -5.46875 L 5.28125 -5.46875 L 5.28125 -5.515625 C 5.28125 -5.742188 5.195312 -5.929688 5.03125 -6.078125 C 4.863281 -6.234375 4.609375 -6.3125 4.265625 -6.3125 C 3.921875 -6.3125 3.660156 -6.257812 3.484375 -6.15625 C 3.304688 -6.0625 3.21875 -5.941406 3.21875 -5.796875 C 3.21875 -5.585938 3.335938 -5.429688 3.578125 -5.328125 C 3.828125 -5.234375 4.222656 -5.132812 4.765625 -5.03125 C 5.398438 -4.894531 5.921875 -4.753906 6.328125 -4.609375 C 6.742188 -4.472656 7.101562 -4.242188 7.40625 -3.921875 C 7.707031 -3.609375 7.863281 -3.175781 7.875 -2.625 C 7.875 -1.6875 7.554688 -0.988281 6.921875 -0.53125 C 6.296875 -0.0820312 5.457031 0.140625 4.40625 0.140625 C 3.164062 0.140625 2.203125 -0.0664062 1.515625 -0.484375 C 0.835938 -0.898438 0.5 -1.628906 0.5 -2.671875 L 2.890625 -2.671875 C 2.890625 -2.273438 2.992188 -2.007812 3.203125 -1.875 C 3.410156 -1.738281 3.734375 -1.671875 4.171875 -1.671875 C 4.492188 -1.671875 4.757812 -1.707031 4.96875 -1.78125 C 5.175781 -1.851562 5.28125 -1.992188 5.28125 -2.203125 C 5.28125 -2.390625 5.160156 -2.53125 4.921875 -2.625 C 4.691406 -2.726562 4.316406 -2.832031 3.796875 -2.9375 C 3.148438 -3.070312 2.613281 -3.210938 2.1875 -3.359375 C 1.769531 -3.515625 1.40625 -3.765625 1.09375 -4.109375 C 0.78125 -4.453125 0.625 -4.921875 0.625 -5.515625 C 0.625 -6.378906 0.957031 -7.015625 1.625 -7.421875 C 2.289062 -7.835938 3.140625 -8.046875 4.171875 -8.046875 Z M 4.171875 -8.046875 "/></g></g></g><g fill="#d9d9d9" fill-opacity="1"><g transform="translate(80.762938, 24.894964)"><g><path d="M 0.84375 -7.90625 L 7.6875 -7.90625 L 7.6875 -6 L 3.390625 -6 L 3.390625 -4.921875 L 7.0625 -4.921875 L 7.0625 -3.09375 L 3.390625 -3.09375 L 3.390625 -1.890625 L 7.765625 -1.890625 L 7.765625 0 L 0.84375 0 Z M 0.84375 -7.90625 "/></g></g></g><g fill="#d9d9d9" fill-opacity="1"><g transform="translate(89.046228, 24.894964)"><g><path d="M 5.390625 -5.875 L 5.390625 0 L 2.859375 0 L 2.859375 -5.875 L 0.265625 -5.875 L 0.265625 -7.90625 L 7.984375 -7.90625 L 7.984375 -5.875 Z M 5.390625 -5.875 "/></g></g></g><g fill="#d9d9d9" fill-opacity="1"><g transform="translate(97.329518, 24.894964)"><g><path d="M 8.71875 -3.1875 C 8.71875 -2.101562 8.375 -1.273438 7.6875 -0.703125 C 7.007812 -0.140625 6.039062 0.140625 4.78125 0.140625 C 3.53125 0.140625 2.5625 -0.140625 1.875 -0.703125 C 1.1875 -1.273438 0.84375 -2.101562 0.84375 -3.1875 L 0.84375 -7.90625 L 3.390625 -7.90625 L 3.390625 -3.21875 C 3.390625 -2.769531 3.503906 -2.410156 3.734375 -2.140625 C 3.972656 -1.878906 4.320312 -1.75 4.78125 -1.75 C 5.226562 -1.75 5.570312 -1.882812 5.8125 -2.15625 C 6.050781 -2.425781 6.171875 -2.78125 6.171875 -3.21875 L 6.171875 -7.90625 L 8.71875 -7.90625 Z M 8.71875 -3.1875 "/></g></g></g><g fill="#d9d9d9" fill-opacity="1"><g transform="translate(106.886284, 24.894964)"><g><path d="M 5.28125 -7.90625 C 5.769531 -7.90625 6.207031 -7.789062 6.59375 -7.5625 C 6.976562 -7.332031 7.273438 -7.019531 7.484375 -6.625 C 7.703125 -6.238281 7.8125 -5.800781 7.8125 -5.3125 L 7.8125 -5.15625 C 7.8125 -4.664062 7.703125 -4.222656 7.484375 -3.828125 C 7.273438 -3.429688 6.976562 -3.117188 6.59375 -2.890625 C 6.207031 -2.660156 5.769531 -2.546875 5.28125 -2.546875 L 3.390625 -2.546875 L 3.390625 0 L 0.84375 0 L 0.84375 -7.90625 Z M 3.390625 -4.40625 L 4.4375 -4.40625 C 4.695312 -4.40625 4.894531 -4.472656 5.03125 -4.609375 C 5.164062 -4.742188 5.234375 -4.929688 5.234375 -5.171875 L 5.234375 -5.265625 C 5.234375 -5.503906 5.164062 -5.691406 5.03125 -5.828125 C 4.894531 -5.960938 4.695312 -6.03125 4.4375 -6.03125 L 3.390625 -6.03125 Z M 3.390625 -4.40625 "/></g></g></g><g fill="#d9d9d9" fill-opacity="1"><g transform="translate(115.169575, 24.894964)"><g/></g></g><g fill="#d9d9d9" fill-opacity="1"><g transform="translate(118.98999, 24.894964)"><g><path d="M 5.390625 -5.875 L 5.390625 0 L 2.859375 0 L 2.859375 -5.875 L 0.265625 -5.875 L 0.265625 -7.90625 L 7.984375 -7.90625 L 7.984375 -5.875 Z M 5.390625 -5.875 "/></g></g></g><g fill="#d9d9d9" fill-opacity="1"><g transform="translate(126.492473, 24.894964)"><g><path d="M 6.140625 0 L 5.8125 -1.109375 L 3.046875 -1.109375 L 2.703125 0 L 0.109375 0 L 3 -7.90625 L 5.953125 -7.90625 L 8.828125 0 Z M 3.578125 -2.875 L 5.28125 -2.875 L 4.453125 -5.703125 L 4.40625 -5.703125 Z M 3.578125 -2.875 "/></g></g></g><g fill="#d9d9d9" fill-opacity="1"><g transform="translate(135.418234, 24.894964)"><g><path d="M 6.203125 -7.90625 L 9.34375 -7.90625 L 6.515625 -4.65625 L 9.40625 0 L 6.40625 0 L 4.765625 -2.890625 L 3.390625 -1.765625 L 3.390625 0 L 0.84375 0 L 0.84375 -7.90625 L 3.390625 -7.90625 L 3.390625 -4.53125 Z M 6.203125 -7.90625 "/></g></g></g><g fill="#d9d9d9" fill-opacity="1"><g transform="translate(144.975, 24.894964)"><g><path d="M 0.84375 -7.90625 L 7.6875 -7.90625 L 7.6875 -6 L 3.390625 -6 L 3.390625 -4.921875 L 7.0625 -4.921875 L 7.0625 -3.09375 L 3.390625 -3.09375 L 3.390625 -1.890625 L 7.765625 -1.890625 L 7.765625 0 L 0.84375 0 Z M 0.84375 -7.90625 "/></g></g></g><g fill="#d9d9d9" fill-opacity="1"><g transform="translate(153.258291, 24.894964)"><g><path d="M 4.78125 -8.046875 C 6.144531 -8.046875 7.195312 -7.695312 7.9375 -7 C 8.675781 -6.300781 9.046875 -5.285156 9.046875 -3.953125 C 9.046875 -2.617188 8.675781 -1.601562 7.9375 -0.90625 C 7.195312 -0.207031 6.144531 0.140625 4.78125 0.140625 C 3.414062 0.140625 2.363281 -0.203125 1.625 -0.890625 C 0.882812 -1.585938 0.515625 -2.609375 0.515625 -3.953125 C 0.515625 -5.285156 0.882812 -6.300781 1.625 -7 C 2.363281 -7.695312 3.414062 -8.046875 4.78125 -8.046875 Z M 4.78125 -6.140625 C 4.238281 -6.140625 3.820312 -5.972656 3.53125 -5.640625 C 3.25 -5.316406 3.109375 -4.875 3.109375 -4.3125 L 3.109375 -3.578125 C 3.109375 -3.023438 3.25 -2.582031 3.53125 -2.25 C 3.820312 -1.914062 4.238281 -1.75 4.78125 -1.75 C 5.320312 -1.75 5.734375 -1.914062 6.015625 -2.25 C 6.304688 -2.582031 6.453125 -3.023438 6.453125 -3.578125 L 6.453125 -4.3125 C 6.453125 -4.875 6.304688 -5.316406 6.015625 -5.640625 C 5.734375 -5.972656 5.320312 -6.140625 4.78125 -6.140625 Z M 4.78125 -6.140625 "/></g></g></g><g fill="#d9d9d9" fill-opacity="1"><g transform="translate(162.815056, 24.894964)"><g><path d="M 0.84375 -7.90625 L 7.234375 -7.90625 L 7.234375 -6 L 3.390625 -6 L 3.390625 -4.65625 L 6.703125 -4.65625 L 6.703125 -2.84375 L 3.390625 -2.84375 L 3.390625 0 L 0.84375 0 Z M 0.84375 -7.90625 "/></g></g></g><g fill="#d9d9d9" fill-opacity="1"><g transform="translate(170.467354, 24.894964)"><g><path d="M 0.84375 -7.90625 L 7.234375 -7.90625 L 7.234375 -6 L 3.390625 -6 L 3.390625 -4.65625 L 6.703125 -4.65625 L 6.703125 -2.84375 L 3.390625 -2.84375 L 3.390625 0 L 0.84375 0 Z M 0.84375 -7.90625 "/></g></g></g><g clip-path="url(#aa59646b55)"><path fill="#d9d9d9" d="M 53.863281 19.289062 L 32.835938 19.289062 C 32.667969 19.289062 32.523438 19.152344 32.523438 18.976562 C 32.523438 18.800781 32.667969 18.660156 32.835938 18.660156 L 53.863281 18.660156 C 54.039062 18.660156 54.179688 18.800781 54.179688 18.976562 C 54.179688 19.152344 54.039062 19.289062 53.863281 19.289062 Z M 53.863281 19.289062 " fill-opacity="1" fill-rule="evenodd"/></g><g clip-path="url(#04ad3f8d7b)"><path fill="#d9d9d9" d="M 53.863281 21.621094 L 32.835938 21.621094 C 32.667969 21.621094 32.523438 21.476562 32.523438 21.304688 C 32.523438 21.132812 32.667969 20.988281 32.835938 20.988281 L 53.863281 20.988281 C 54.039062 20.988281 54.179688 21.132812 54.179688 21.304688 C 54.179688 21.476562 54.039062 21.621094 53.863281 21.621094 Z M 53.863281 21.621094 " fill-opacity="1" fill-rule="evenodd"/></g><g clip-path="url(#0ff1ea35d2)"><path fill="#d9d9d9" d="M 53.863281 23.953125 L 32.835938 23.953125 C 32.667969 23.953125 32.523438 23.808594 32.523438 23.632812 C 32.523438 23.460938 32.667969 23.320312 32.835938 23.320312 L 53.863281 23.320312 C 54.039062 23.320312 54.179688 23.460938 54.179688 23.632812 C 54.179688 23.808594 54.039062 23.953125 53.863281 23.953125 Z M 53.863281 23.953125 " fill-opacity="1" fill-rule="evenodd"/></g><g clip-path="url(#eb861a5dbe)"><path fill="#d9d9d9" d="M 53.863281 26.277344 L 32.835938 26.277344 C 32.667969 26.277344 32.523438 26.140625 32.523438 25.964844 C 32.523438 25.789062 32.667969 25.648438 32.835938 25.648438 L 53.863281 25.648438 C 54.039062 25.648438 54.179688 25.789062 54.179688 25.964844 C 54.179688 26.140625 54.039062 26.277344 53.863281 26.277344 Z M 53.863281 26.277344 " fill-opacity="1" fill-rule="evenodd"/></g><g clip-path="url(#2bbbe9f112)"><path fill="#d9d9d9" d="M 53.863281 28.402344 L 32.835938 28.402344 C 32.667969 28.402344 32.523438 28.257812 32.523438 28.082031 L 32.523438 16.855469 C 32.523438 16.679688 32.667969 16.539062 32.835938 16.539062 L 53.863281 16.539062 C 54.039062 16.539062 54.179688 16.679688 54.179688 16.855469 L 54.179688 28.082031 C 54.179688 28.257812 54.039062 28.402344 53.863281 28.402344 Z M 33.15625 27.769531 L 53.546875 27.769531 L 53.546875 17.171875 L 33.15625 17.171875 Z M 33.15625 27.769531 " fill-opacity="1" fill-rule="evenodd"/></g><g clip-path="url(#c30218dd92)"><path fill="#d9d9d9" d="M 55.28125 29.699219 L 34.035156 29.699219 C 33.859375 29.699219 33.714844 29.558594 33.714844 29.382812 L 33.714844 28.082031 C 33.714844 27.910156 33.859375 27.769531 34.035156 27.769531 L 53.546875 27.769531 L 53.546875 17.933594 C 53.546875 17.757812 53.691406 17.613281 53.863281 17.613281 L 55.28125 17.613281 C 55.453125 17.613281 55.597656 17.757812 55.597656 17.933594 L 55.597656 29.382812 C 55.597656 29.558594 55.453125 29.699219 55.28125 29.699219 Z M 34.347656 29.066406 L 54.964844 29.066406 L 54.964844 18.246094 L 54.179688 18.246094 L 54.179688 28.082031 C 54.179688 28.257812 54.039062 28.402344 53.863281 28.402344 L 34.347656 28.402344 Z M 34.347656 29.066406 " fill-opacity="1" fill-rule="evenodd"/></g><path fill="#d9d9d9" d="M 35.648438 28.402344 C 35.472656 28.402344 35.328125 28.257812 35.328125 28.082031 L 35.328125 16.855469 C 35.328125 16.679688 35.472656 16.539062 35.648438 16.539062 C 35.816406 16.539062 35.960938 16.679688 35.960938 16.855469 L 35.960938 28.082031 C 35.960938 28.257812 35.816406 28.402344 35.648438 28.402344 Z M 35.648438 28.402344 " fill-opacity="1" fill-rule="evenodd"/><path fill="#d9d9d9" d="M 38.214844 28.402344 C 38.042969 28.402344 37.898438 28.257812 37.898438 28.082031 L 37.898438 16.855469 C 37.898438 16.679688 38.042969 16.539062 38.214844 16.539062 C 38.386719 16.539062 38.53125 16.679688 38.53125 16.855469 L 38.53125 28.082031 C 38.53125 28.257812 38.386719 28.402344 38.214844 28.402344 Z M 38.214844 28.402344 " fill-opacity="1" fill-rule="evenodd"/><path fill="#d9d9d9" d="M 40.785156 28.402344 C 40.609375 28.402344 40.464844 28.257812 40.464844 28.082031 L 40.464844 16.855469 C 40.464844 16.679688 40.609375 16.539062 40.785156 16.539062 C 40.953125 16.539062 41.097656 16.679688 41.097656 16.855469 L 41.097656 28.082031 C 41.097656 28.257812 40.953125 28.402344 40.785156 28.402344 Z M 40.785156 28.402344 " fill-opacity="1" fill-rule="evenodd"/><path fill="#d9d9d9" d="M 43.347656 28.402344 C 43.179688 28.402344 43.035156 28.257812 43.035156 28.082031 L 43.035156 16.855469 C 43.035156 16.679688 43.179688 16.539062 43.347656 16.539062 C 43.523438 16.539062 43.667969 16.679688 43.667969 16.855469 L 43.667969 28.082031 C 43.667969 28.257812 43.523438 28.402344 43.347656 28.402344 Z M 43.347656 28.402344 " fill-opacity="1" fill-rule="evenodd"/><path fill="#d9d9d9" d="M 45.921875 28.402344 C 45.746094 28.402344 45.605469 28.257812 45.605469 28.082031 L 45.605469 16.855469 C 45.605469 16.679688 45.746094 16.539062 45.921875 16.539062 C 46.097656 16.539062 46.234375 16.679688 46.234375 16.855469 L 46.234375 28.082031 C 46.234375 28.257812 46.097656 28.402344 45.921875 28.402344 Z M 45.921875 28.402344 " fill-opacity="1" fill-rule="evenodd"/><path fill="#d9d9d9" d="M 48.484375 28.402344 C 48.316406 28.402344 48.171875 28.257812 48.171875 28.082031 L 48.171875 16.855469 C 48.171875 16.679688 48.316406 16.539062 48.484375 16.539062 C 48.660156 16.539062 48.804688 16.679688 48.804688 16.855469 L 48.804688 28.082031 C 48.804688 28.257812 48.660156 28.402344 48.484375 28.402344 Z M 48.484375 28.402344 " fill-opacity="1" fill-rule="evenodd"/><path fill="#d9d9d9" d="M 51.058594 28.402344 C 50.882812 28.402344 50.742188 28.257812 50.742188 28.082031 L 50.742188 16.855469 C 50.742188 16.679688 50.882812 16.539062 51.058594 16.539062 C 51.230469 16.539062 51.371094 16.679688 51.371094 16.855469 L 51.371094 28.082031 C 51.371094 28.257812 51.230469 28.402344 51.058594 28.402344 Z M 51.058594 28.402344 " fill-opacity="1" fill-rule="evenodd"/><g clip-path="url(#4648660ac2)"><path fill="#d9d9d9" d="M 53.863281 17.171875 L 32.835938 17.171875 C 32.667969 17.171875 32.523438 17.027344 32.523438 16.855469 L 32.523438 13.332031 C 32.523438 13.15625 32.667969 13.011719 32.835938 13.011719 L 53.863281 13.011719 C 54.039062 13.011719 54.179688 13.15625 54.179688 13.332031 L 54.179688 16.855469 C 54.179688 17.03125 54.039062 17.171875 53.863281 17.171875 Z M 33.15625 16.539062 L 53.546875 16.539062 L 53.546875 13.648438 L 33.15625 13.648438 Z M 33.15625 16.539062 " fill-opacity="1" fill-rule="evenodd"/></g><path fill="#d9d9d9" d="M 45.410156 14.769531 L 34.152344 14.769531 C 33.976562 14.769531 33.835938 14.632812 33.835938 14.457031 C 33.835938 14.28125 33.976562 14.140625 34.152344 14.140625 L 45.410156 14.140625 C 45.585938 14.140625 45.730469 14.28125 45.730469 14.457031 C 45.730469 14.632812 45.585938 14.769531 45.410156 14.769531 Z M 45.410156 14.769531 " fill-opacity="1" fill-rule="evenodd"/><path fill="#d9d9d9" d="M 41.976562 16.046875 L 34.152344 16.046875 C 33.976562 16.046875 33.835938 15.902344 33.835938 15.734375 C 33.835938 15.558594 33.976562 15.414062 34.152344 15.414062 L 41.976562 15.414062 C 42.152344 15.414062 42.289062 15.558594 42.289062 15.734375 C 42.289062 15.902344 42.152344 16.046875 41.976562 16.046875 Z M 41.976562 16.046875 " fill-opacity="1" fill-rule="evenodd"/><path fill="#d9d9d9" d="M 52.546875 16.128906 L 46.875 16.128906 C 46.703125 16.128906 46.558594 15.988281 46.558594 15.8125 L 46.558594 14.371094 C 46.558594 14.199219 46.703125 14.058594 46.875 14.058594 L 52.546875 14.058594 C 52.722656 14.058594 52.867188 14.199219 52.867188 14.371094 L 52.867188 15.8125 C 52.867188 15.988281 52.722656 16.128906 52.546875 16.128906 Z M 47.191406 15.5 L 52.234375 15.5 L 52.234375 14.691406 L 47.191406 14.691406 Z M 47.191406 15.5 " fill-opacity="1" fill-rule="evenodd"/><path stroke-linecap="round" transform="matrix(0.75, 0, 0, 0.75, 21.600001, 37.895443)" fill="none" stroke-linejoin="miter" d="M 0.502082 0.498784 L 229.89793 0.498784 " stroke="#d9d9d9" stroke-width="1" stroke-opacity="1" stroke-miterlimit="4"/><g fill="#d9d9d9" fill-opacity="1"><g transform="translate(50.433817, 61.97583)"><g><path d="M 3.8125 -6.640625 C 4.78125 -6.640625 5.546875 -6.394531 6.109375 -5.90625 C 6.671875 -5.425781 6.953125 -4.738281 6.953125 -3.84375 L 4.953125 -3.84375 C 4.953125 -4.21875 4.851562 -4.515625 4.65625 -4.734375 C 4.457031 -4.960938 4.171875 -5.078125 3.796875 -5.078125 C 3.378906 -5.078125 3.066406 -4.941406 2.859375 -4.671875 C 2.660156 -4.410156 2.5625 -4.039062 2.5625 -3.5625 L 2.5625 -2.953125 C 2.5625 -2.484375 2.660156 -2.113281 2.859375 -1.84375 C 3.066406 -1.582031 3.375 -1.453125 3.78125 -1.453125 C 4.1875 -1.453125 4.492188 -1.554688 4.703125 -1.765625 C 4.910156 -1.972656 5.015625 -2.265625 5.015625 -2.640625 L 6.953125 -2.640625 C 6.953125 -1.753906 6.675781 -1.070312 6.125 -0.59375 C 5.582031 -0.125 4.8125 0.109375 3.8125 0.109375 C 2.695312 0.109375 1.851562 -0.171875 1.28125 -0.734375 C 0.707031 -1.304688 0.421875 -2.148438 0.421875 -3.265625 C 0.421875 -4.378906 0.707031 -5.21875 1.28125 -5.78125 C 1.851562 -6.351562 2.695312 -6.640625 3.8125 -6.640625 Z M 3.8125 -6.640625 "/></g></g></g><g fill="#d9d9d9" fill-opacity="1"><g transform="translate(57.800493, 61.97583)"><g><path d="M 6.890625 -4.53125 C 6.890625 -4.125 6.78125 -3.757812 6.5625 -3.4375 C 6.351562 -3.113281 6.046875 -2.878906 5.640625 -2.734375 L 7.078125 0 L 4.734375 0 L 3.578125 -2.375 L 2.796875 -2.375 L 2.796875 0 L 0.703125 0 L 0.703125 -6.53125 L 4.6875 -6.53125 C 5.15625 -6.53125 5.554688 -6.4375 5.890625 -6.25 C 6.222656 -6.070312 6.472656 -5.828125 6.640625 -5.515625 C 6.804688 -5.210938 6.890625 -4.882812 6.890625 -4.53125 Z M 4.765625 -4.4375 C 4.765625 -4.601562 4.707031 -4.742188 4.59375 -4.859375 C 4.476562 -4.972656 4.335938 -5.03125 4.171875 -5.03125 L 2.796875 -5.03125 L 2.796875 -3.828125 L 4.171875 -3.828125 C 4.335938 -3.828125 4.476562 -3.882812 4.59375 -4 C 4.707031 -4.125 4.765625 -4.269531 4.765625 -4.4375 Z M 4.765625 -4.4375 "/></g></g></g><g fill="#d9d9d9" fill-opacity="1"><g transform="translate(65.167169, 61.97583)"><g><path d="M 0.703125 -6.53125 L 6.34375 -6.53125 L 6.34375 -4.953125 L 2.796875 -4.953125 L 2.796875 -4.0625 L 5.828125 -4.0625 L 5.828125 -2.5625 L 2.796875 -2.5625 L 2.796875 -1.5625 L 6.40625 -1.5625 L 6.40625 0 L 0.703125 0 Z M 0.703125 -6.53125 "/></g></g></g><g fill="#d9d9d9" fill-opacity="1"><g transform="translate(72.003595, 61.97583)"><g><path d="M 5.078125 0 L 4.796875 -0.921875 L 2.515625 -0.921875 L 2.234375 0 L 0.09375 0 L 2.46875 -6.53125 L 4.90625 -6.53125 L 7.296875 0 Z M 2.953125 -2.375 L 4.359375 -2.375 L 3.6875 -4.703125 L 3.640625 -4.703125 Z M 2.953125 -2.375 "/></g></g></g><g fill="#d9d9d9" fill-opacity="1"><g transform="translate(78.716149, 61.97583)"><g><path d="M 4.453125 -4.859375 L 4.453125 0 L 2.359375 0 L 2.359375 -4.859375 L 0.21875 -4.859375 L 0.21875 -6.53125 L 6.59375 -6.53125 L 6.59375 -4.859375 Z M 4.453125 -4.859375 "/></g></g></g><g fill="#d9d9d9" fill-opacity="1"><g transform="translate(85.552574, 61.97583)"><g><path d="M 0.703125 -6.53125 L 6.34375 -6.53125 L 6.34375 -4.953125 L 2.796875 -4.953125 L 2.796875 -4.0625 L 5.828125 -4.0625 L 5.828125 -2.5625 L 2.796875 -2.5625 L 2.796875 -1.5625 L 6.40625 -1.5625 L 6.40625 0 L 0.703125 0 Z M 0.703125 -6.53125 "/></g></g></g><g fill="#d9d9d9" fill-opacity="1"><g transform="translate(92.389, 61.97583)"><g/></g></g><g fill="#d9d9d9" fill-opacity="1"><g transform="translate(95.542087, 61.97583)"><g><path d="M 5.375 0 L 2.625 -3.171875 L 2.625 0 L 0.703125 0 L 0.703125 -6.53125 L 2.53125 -6.53125 L 5.265625 -3.3125 L 5.265625 -6.53125 L 7.203125 -6.53125 L 7.203125 0 Z M 5.375 0 "/></g></g></g><g fill="#d9d9d9" fill-opacity="1"><g transform="translate(103.429538, 61.97583)"><g><path d="M 0.703125 -6.53125 L 6.34375 -6.53125 L 6.34375 -4.953125 L 2.796875 -4.953125 L 2.796875 -4.0625 L 5.828125 -4.0625 L 5.828125 -2.5625 L 2.796875 -2.5625 L 2.796875 -1.5625 L 6.40625 -1.5625 L 6.40625 0 L 0.703125 0 Z M 0.703125 -6.53125 "/></g></g></g><g fill="#d9d9d9" fill-opacity="1"><g transform="translate(110.265963, 61.97583)"><g><path d="M 5.609375 0 L 4.765625 -3.96875 L 4.71875 -3.96875 L 3.875 0 L 1.578125 0 L 0.046875 -6.53125 L 2.234375 -6.53125 L 2.984375 -2.828125 L 3.015625 -2.828125 L 3.75 -6.53125 L 5.828125 -6.53125 L 6.609375 -2.828125 L 6.65625 -2.828125 L 7.34375 -6.53125 L 9.4375 -6.53125 L 7.90625 0 Z M 5.609375 0 "/></g></g></g><g fill="#d9d9d9" fill-opacity="1"><g transform="translate(119.734701, 61.97583)"><g/></g></g><g fill="#d9d9d9" fill-opacity="1"><g transform="translate(122.887789, 61.97583)"><g><path d="M 3.4375 -6.640625 C 4.269531 -6.640625 4.957031 -6.46875 5.5 -6.125 C 6.039062 -5.789062 6.316406 -5.289062 6.328125 -4.625 L 6.328125 -4.515625 L 4.359375 -4.515625 L 4.359375 -4.546875 C 4.359375 -4.742188 4.289062 -4.90625 4.15625 -5.03125 C 4.019531 -5.15625 3.804688 -5.21875 3.515625 -5.21875 C 3.234375 -5.21875 3.019531 -5.175781 2.875 -5.09375 C 2.726562 -5.007812 2.65625 -4.910156 2.65625 -4.796875 C 2.65625 -4.617188 2.753906 -4.488281 2.953125 -4.40625 C 3.160156 -4.320312 3.488281 -4.238281 3.9375 -4.15625 C 4.457031 -4.050781 4.882812 -3.9375 5.21875 -3.8125 C 5.5625 -3.695312 5.859375 -3.503906 6.109375 -3.234375 C 6.367188 -2.972656 6.5 -2.613281 6.5 -2.15625 C 6.5 -1.382812 6.238281 -0.8125 5.71875 -0.4375 C 5.195312 -0.0703125 4.5 0.109375 3.625 0.109375 C 2.613281 0.109375 1.820312 -0.0546875 1.25 -0.390625 C 0.6875 -0.734375 0.40625 -1.335938 0.40625 -2.203125 L 2.390625 -2.203125 C 2.390625 -1.878906 2.472656 -1.660156 2.640625 -1.546875 C 2.816406 -1.441406 3.082031 -1.390625 3.4375 -1.390625 C 3.707031 -1.390625 3.925781 -1.414062 4.09375 -1.46875 C 4.269531 -1.53125 4.359375 -1.648438 4.359375 -1.828125 C 4.359375 -1.984375 4.257812 -2.097656 4.0625 -2.171875 C 3.875 -2.253906 3.5625 -2.335938 3.125 -2.421875 C 2.59375 -2.535156 2.15625 -2.65625 1.8125 -2.78125 C 1.46875 -2.90625 1.164062 -3.109375 0.90625 -3.390625 C 0.644531 -3.679688 0.515625 -4.066406 0.515625 -4.546875 C 0.515625 -5.265625 0.789062 -5.789062 1.34375 -6.125 C 1.894531 -6.46875 2.59375 -6.640625 3.4375 -6.640625 Z M 3.4375 -6.640625 "/></g></g></g><g fill="#d9d9d9" fill-opacity="1"><g transform="translate(129.724214, 61.97583)"><g><path d="M 5.109375 0 L 5.109375 -2.46875 L 2.796875 -2.46875 L 2.796875 0 L 0.703125 0 L 0.703125 -6.53125 L 2.796875 -6.53125 L 2.796875 -4.140625 L 5.109375 -4.140625 L 5.109375 -6.53125 L 7.203125 -6.53125 L 7.203125 0 Z M 5.109375 0 "/></g></g></g><g fill="#d9d9d9" fill-opacity="1"><g transform="translate(137.611665, 61.97583)"><g><path d="M 0.703125 -6.53125 L 6.34375 -6.53125 L 6.34375 -4.953125 L 2.796875 -4.953125 L 2.796875 -4.0625 L 5.828125 -4.0625 L 5.828125 -2.5625 L 2.796875 -2.5625 L 2.796875 -1.5625 L 6.40625 -1.5625 L 6.40625 0 L 0.703125 0 Z M 0.703125 -6.53125 "/></g></g></g><g fill="#d9d9d9" fill-opacity="1"><g transform="translate(144.44809, 61.97583)"><g><path d="M 0.703125 -6.53125 L 6.34375 -6.53125 L 6.34375 -4.953125 L 2.796875 -4.953125 L 2.796875 -4.0625 L 5.828125 -4.0625 L 5.828125 -2.5625 L 2.796875 -2.5625 L 2.796875 -1.5625 L 6.40625 -1.5625 L 6.40625 0 L 0.703125 0 Z M 0.703125 -6.53125 "/></g></g></g><g fill="#d9d9d9" fill-opacity="1"><g transform="translate(151.284515, 61.97583)"><g><path d="M 4.453125 -4.859375 L 4.453125 0 L 2.359375 0 L 2.359375 -4.859375 L 0.21875 -4.859375 L 0.21875 -6.53125 L 6.59375 -6.53125 L 6.59375 -4.859375 Z M 4.453125 -4.859375 "/></g></g></g><g clip-path="url(#3b5dd34a1f)"><g clip-path="url(#55e54b95a6)"><g transform="matrix(1, 0, 0, 1, 32, 53)"><g clip-path="url(#0eed37b865)"><g clip-path="url(#61b596324f)"><g clip-path="url(#c1ad72a26f)"><path fill="#d9d9d9" d="M 0.523438 0.925781 L 13.632812 0.925781 L 13.632812 14.035156 L 0.523438 14.035156 Z M 0.523438 0.925781 " fill-opacity="1" fill-rule="nonzero"/></g></g></g></g></g></g><g fill="#d9d9d9" fill-opacity="1"><g transform="translate(50.433817, 90.086771)"><g><path d="M 7.203125 -2.625 C 7.203125 -1.738281 6.921875 -1.0625 6.359375 -0.59375 C 5.796875 -0.125 4.992188 0.109375 3.953125 0.109375 C 2.921875 0.109375 2.117188 -0.125 1.546875 -0.59375 C 0.984375 -1.0625 0.703125 -1.738281 0.703125 -2.625 L 0.703125 -6.53125 L 2.796875 -6.53125 L 2.796875 -2.65625 C 2.796875 -2.289062 2.894531 -2 3.09375 -1.78125 C 3.289062 -1.5625 3.578125 -1.453125 3.953125 -1.453125 C 4.316406 -1.453125 4.597656 -1.5625 4.796875 -1.78125 C 5.003906 -2 5.109375 -2.289062 5.109375 -2.65625 L 5.109375 -6.53125 L 7.203125 -6.53125 Z M 7.203125 -2.625 "/></g></g></g><g fill="#d9d9d9" fill-opacity="1"><g transform="translate(58.321268, 90.086771)"><g><path d="M 4.359375 -6.53125 C 4.765625 -6.53125 5.125 -6.4375 5.4375 -6.25 C 5.757812 -6.0625 6.007812 -5.800781 6.1875 -5.46875 C 6.363281 -5.144531 6.453125 -4.78125 6.453125 -4.375 L 6.453125 -4.265625 C 6.453125 -3.859375 6.363281 -3.488281 6.1875 -3.15625 C 6.007812 -2.832031 5.757812 -2.578125 5.4375 -2.390625 C 5.125 -2.203125 4.765625 -2.109375 4.359375 -2.109375 L 2.796875 -2.109375 L 2.796875 0 L 0.703125 0 L 0.703125 -6.53125 Z M 2.796875 -3.625 L 3.65625 -3.625 C 3.882812 -3.625 4.050781 -3.679688 4.15625 -3.796875 C 4.269531 -3.910156 4.328125 -4.066406 4.328125 -4.265625 L 4.328125 -4.34375 C 4.328125 -4.539062 4.269531 -4.695312 4.15625 -4.8125 C 4.050781 -4.925781 3.882812 -4.984375 3.65625 -4.984375 L 2.796875 -4.984375 Z M 2.796875 -3.625 "/></g></g></g><g fill="#d9d9d9" fill-opacity="1"><g transform="translate(65.157694, 90.086771)"><g><path d="M 3.53125 -6.53125 C 5.8125 -6.53125 6.953125 -5.441406 6.953125 -3.265625 C 6.953125 -1.085938 5.8125 0 3.53125 0 L 0.703125 0 L 0.703125 -6.53125 Z M 2.796875 -1.5625 L 3.484375 -1.5625 C 4.367188 -1.5625 4.8125 -2.035156 4.8125 -2.984375 L 4.8125 -3.546875 C 4.8125 -4.484375 4.367188 -4.953125 3.484375 -4.953125 L 2.796875 -4.953125 Z M 2.796875 -1.5625 "/></g></g></g><g fill="#d9d9d9" fill-opacity="1"><g transform="translate(72.116731, 90.086771)"><g><path d="M 5.078125 0 L 4.796875 -0.921875 L 2.515625 -0.921875 L 2.234375 0 L 0.09375 0 L 2.46875 -6.53125 L 4.90625 -6.53125 L 7.296875 0 Z M 2.953125 -2.375 L 4.359375 -2.375 L 3.6875 -4.703125 L 3.640625 -4.703125 Z M 2.953125 -2.375 "/></g></g></g><g fill="#d9d9d9" fill-opacity="1"><g transform="translate(78.829285, 90.086771)"><g><path d="M 4.453125 -4.859375 L 4.453125 0 L 2.359375 0 L 2.359375 -4.859375 L 0.21875 -4.859375 L 0.21875 -6.53125 L 6.59375 -6.53125 L 6.59375 -4.859375 Z M 4.453125 -4.859375 "/></g></g></g><g fill="#d9d9d9" fill-opacity="1"><g transform="translate(85.665711, 90.086771)"><g><path d="M 0.703125 -6.53125 L 6.34375 -6.53125 L 6.34375 -4.953125 L 2.796875 -4.953125 L 2.796875 -4.0625 L 5.828125 -4.0625 L 5.828125 -2.5625 L 2.796875 -2.5625 L 2.796875 -1.5625 L 6.40625 -1.5625 L 6.40625 0 L 0.703125 0 Z M 0.703125 -6.53125 "/></g></g></g><g fill="#d9d9d9" fill-opacity="1"><g transform="translate(92.502136, 90.086771)"><g/></g></g><g fill="#d9d9d9" fill-opacity="1"><g transform="translate(95.655224, 90.086771)"><g><path d="M 3.53125 -6.53125 C 5.8125 -6.53125 6.953125 -5.441406 6.953125 -3.265625 C 6.953125 -1.085938 5.8125 0 3.53125 0 L 0.703125 0 L 0.703125 -6.53125 Z M 2.796875 -1.5625 L 3.484375 -1.5625 C 4.367188 -1.5625 4.8125 -2.035156 4.8125 -2.984375 L 4.8125 -3.546875 C 4.8125 -4.484375 4.367188 -4.953125 3.484375 -4.953125 L 2.796875 -4.953125 Z M 2.796875 -1.5625 "/></g></g></g><g fill="#d9d9d9" fill-opacity="1"><g transform="translate(103.021899, 90.086771)"><g><path d="M 0.703125 -6.53125 L 6.34375 -6.53125 L 6.34375 -4.953125 L 2.796875 -4.953125 L 2.796875 -4.0625 L 5.828125 -4.0625 L 5.828125 -2.5625 L 2.796875 -2.5625 L 2.796875 -1.5625 L 6.40625 -1.5625 L 6.40625 0 L 0.703125 0 Z M 0.703125 -6.53125 "/></g></g></g><g fill="#d9d9d9" fill-opacity="1"><g transform="translate(109.858325, 90.086771)"><g><path d="M 0.703125 -6.53125 L 5.96875 -6.53125 L 5.96875 -4.953125 L 2.796875 -4.953125 L 2.796875 -3.84375 L 5.53125 -3.84375 L 5.53125 -2.34375 L 2.796875 -2.34375 L 2.796875 0 L 0.703125 0 Z M 0.703125 -6.53125 "/></g></g></g><g fill="#d9d9d9" fill-opacity="1"><g transform="translate(115.282858, 90.086771)"><g><path d="M 5.078125 0 L 4.796875 -0.921875 L 2.515625 -0.921875 L 2.234375 0 L 0.09375 0 L 2.46875 -6.53125 L 4.90625 -6.53125 L 7.296875 0 Z M 2.953125 -2.375 L 4.359375 -2.375 L 3.6875 -4.703125 L 3.640625 -4.703125 Z M 2.953125 -2.375 "/></g></g></g><g fill="#d9d9d9" fill-opacity="1"><g transform="translate(122.327211, 90.086771)"><g><path d="M 7.203125 -2.625 C 7.203125 -1.738281 6.921875 -1.0625 6.359375 -0.59375 C 5.796875 -0.125 4.992188 0.109375 3.953125 0.109375 C 2.921875 0.109375 2.117188 -0.125 1.546875 -0.59375 C 0.984375 -1.0625 0.703125 -1.738281 0.703125 -2.625 L 0.703125 -6.53125 L 2.796875 -6.53125 L 2.796875 -2.65625 C 2.796875 -2.289062 2.894531 -2 3.09375 -1.78125 C 3.289062 -1.5625 3.578125 -1.453125 3.953125 -1.453125 C 4.316406 -1.453125 4.597656 -1.5625 4.796875 -1.78125 C 5.003906 -2 5.109375 -2.289062 5.109375 -2.65625 L 5.109375 -6.53125 L 7.203125 -6.53125 Z M 7.203125 -2.625 "/></g></g></g><g fill="#d9d9d9" fill-opacity="1"><g transform="translate(130.214662, 90.086771)"><g><path d="M 0.703125 -6.53125 L 2.796875 -6.53125 L 2.796875 -1.671875 L 6.140625 -1.671875 L 6.140625 0 L 0.703125 0 Z M 0.703125 -6.53125 "/></g></g></g><g fill="#d9d9d9" fill-opacity="1"><g transform="translate(136.046834, 90.086771)"><g><path d="M 4.453125 -4.859375 L 4.453125 0 L 2.359375 0 L 2.359375 -4.859375 L 0.21875 -4.859375 L 0.21875 -6.53125 L 6.59375 -6.53125 L 6.59375 -4.859375 Z M 4.453125 -4.859375 "/></g></g></g><g fill="#d9d9d9" fill-opacity="1"><g transform="translate(142.883259, 90.086771)"><g/></g></g><g fill="#d9d9d9" fill-opacity="1"><g transform="translate(146.036347, 90.086771)"><g><path d="M 3.4375 -6.640625 C 4.269531 -6.640625 4.957031 -6.46875 5.5 -6.125 C 6.039062 -5.789062 6.316406 -5.289062 6.328125 -4.625 L 6.328125 -4.515625 L 4.359375 -4.515625 L 4.359375 -4.546875 C 4.359375 -4.742188 4.289062 -4.90625 4.15625 -5.03125 C 4.019531 -5.15625 3.804688 -5.21875 3.515625 -5.21875 C 3.234375 -5.21875 3.019531 -5.175781 2.875 -5.09375 C 2.726562 -5.007812 2.65625 -4.910156 2.65625 -4.796875 C 2.65625 -4.617188 2.753906 -4.488281 2.953125 -4.40625 C 3.160156 -4.320312 3.488281 -4.238281 3.9375 -4.15625 C 4.457031 -4.050781 4.882812 -3.9375 5.21875 -3.8125 C 5.5625 -3.695312 5.859375 -3.503906 6.109375 -3.234375 C 6.367188 -2.972656 6.5 -2.613281 6.5 -2.15625 C 6.5 -1.382812 6.238281 -0.8125 5.71875 -0.4375 C 5.195312 -0.0703125 4.5 0.109375 3.625 0.109375 C 2.613281 0.109375 1.820312 -0.0546875 1.25 -0.390625 C 0.6875 -0.734375 0.40625 -1.335938 0.40625 -2.203125 L 2.390625 -2.203125 C 2.390625 -1.878906 2.472656 -1.660156 2.640625 -1.546875 C 2.816406 -1.441406 3.082031 -1.390625 3.4375 -1.390625 C 3.707031 -1.390625 3.925781 -1.414062 4.09375 -1.46875 C 4.269531 -1.53125 4.359375 -1.648438 4.359375 -1.828125 C 4.359375 -1.984375 4.257812 -2.097656 4.0625 -2.171875 C 3.875 -2.253906 3.5625 -2.335938 3.125 -2.421875 C 2.59375 -2.535156 2.15625 -2.65625 1.8125 -2.78125 C 1.46875 -2.90625 1.164062 -3.109375 0.90625 -3.390625 C 0.644531 -3.679688 0.515625 -4.066406 0.515625 -4.546875 C 0.515625 -5.265625 0.789062 -5.789062 1.34375 -6.125 C 1.894531 -6.46875 2.59375 -6.640625 3.4375 -6.640625 Z M 3.4375 -6.640625 "/></g></g></g><g fill="#d9d9d9" fill-opacity="1"><g transform="translate(152.872772, 90.086771)"><g><path d="M 5.109375 0 L 5.109375 -2.46875 L 2.796875 -2.46875 L 2.796875 0 L 0.703125 0 L 0.703125 -6.53125 L 2.796875 -6.53125 L 2.796875 -4.140625 L 5.109375 -4.140625 L 5.109375 -6.53125 L 7.203125 -6.53125 L 7.203125 0 Z M 5.109375 0 "/></g></g></g><g fill="#d9d9d9" fill-opacity="1"><g transform="translate(160.760223, 90.086771)"><g><path d="M 0.703125 -6.53125 L 6.34375 -6.53125 L 6.34375 -4.953125 L 2.796875 -4.953125 L 2.796875 -4.0625 L 5.828125 -4.0625 L 5.828125 -2.5625 L 2.796875 -2.5625 L 2.796875 -1.5625 L 6.40625 -1.5625 L 6.40625 0 L 0.703125 0 Z M 0.703125 -6.53125 "/></g></g></g><g fill="#d9d9d9" fill-opacity="1"><g transform="translate(167.596648, 90.086771)"><g><path d="M 0.703125 -6.53125 L 6.34375 -6.53125 L 6.34375 -4.953125 L 2.796875 -4.953125 L 2.796875 -4.0625 L 5.828125 -4.0625 L 5.828125 -2.5625 L 2.796875 -2.5625 L 2.796875 -1.5625 L 6.40625 -1.5625 L 6.40625 0 L 0.703125 0 Z M 0.703125 -6.53125 "/></g></g></g><g fill="#d9d9d9" fill-opacity="1"><g transform="translate(174.433074, 90.086771)"><g><path d="M 4.453125 -4.859375 L 4.453125 0 L 2.359375 0 L 2.359375 -4.859375 L 0.21875 -4.859375 L 0.21875 -6.53125 L 6.59375 -6.53125 L 6.59375 -4.859375 Z M 4.453125 -4.859375 "/></g></g></g><g clip-path="url(#3293e57975)"><g clip-path="url(#98875de759)"><g transform="matrix(1, 0, 0, 1, 32, 82)"><g clip-path="url(#f9feb713f5)"><g clip-path="url(#73ace153d4)"><g clip-path="url(#a054e6a2d3)"><path fill="#d9d9d9" d="M 0.523438 0.0351562 L 13.632812 0.0351562 L 13.632812 13.144531 L 0.523438 13.144531 Z M 0.523438 0.0351562 " fill-opacity="1" fill-rule="nonzero"/></g></g></g></g></g></g></svg>