<svg xmlns="http://www.w3.org/2000/svg" xmlns:xlink="http://www.w3.org/1999/xlink" width="288" zoomAndPan="magnify" viewBox="0 0 216 36.000001" height="48" preserveAspectRatio="xMidYMid meet" version="1.0"><defs><g/><clipPath id="c0c5974ba6"><path d="M 6.421875 1.101562 L 205.527344 1.101562 L 205.527344 29.121094 L 6.421875 29.121094 Z M 6.421875 1.101562 " clip-rule="nonzero"/></clipPath><clipPath id="c3fbf74f68"><path d="M 205.449219 9.121094 L 205.449219 21.101562 C 205.449219 23.226562 204.601562 25.269531 203.097656 26.773438 C 201.59375 28.277344 199.554688 29.121094 197.425781 29.121094 L 14.441406 29.121094 C 12.316406 29.121094 10.273438 28.277344 8.769531 26.773438 C 7.265625 25.269531 6.421875 23.226562 6.421875 21.101562 L 6.421875 9.121094 C 6.421875 6.992188 7.265625 4.953125 8.769531 3.449219 C 10.273438 1.945312 12.316406 1.101562 14.441406 1.101562 L 197.425781 1.101562 C 199.554688 1.101562 201.59375 1.945312 203.097656 3.449219 C 204.601562 4.953125 205.449219 6.992188 205.449219 9.121094 Z M 205.449219 9.121094 " clip-rule="nonzero"/></clipPath><clipPath id="7da85aa331"><path d="M 0.421875 0.101562 L 199.527344 0.101562 L 199.527344 28.121094 L 0.421875 28.121094 Z M 0.421875 0.101562 " clip-rule="nonzero"/></clipPath><clipPath id="4d90d24ad6"><path d="M 199.449219 8.121094 L 199.449219 20.101562 C 199.449219 22.226562 198.601562 24.269531 197.097656 25.773438 C 195.59375 27.277344 193.554688 28.121094 191.425781 28.121094 L 8.441406 28.121094 C 6.316406 28.121094 4.273438 27.277344 2.769531 25.773438 C 1.265625 24.269531 0.421875 22.226562 0.421875 20.101562 L 0.421875 8.121094 C 0.421875 5.992188 1.265625 3.953125 2.769531 2.449219 C 4.273438 0.945312 6.316406 0.101562 8.441406 0.101562 L 191.425781 0.101562 C 193.554688 0.101562 195.59375 0.945312 197.097656 2.449219 C 198.601562 3.953125 199.449219 5.992188 199.449219 8.121094 Z M 199.449219 8.121094 " clip-rule="nonzero"/></clipPath><clipPath id="597f9f7886"><rect x="0" width="200" y="0" height="29"/></clipPath><clipPath id="c7e1b64db3"><path d="M 6.519531 1.101562 L 205.539062 1.101562 L 205.539062 28.828125 L 6.519531 28.828125 Z M 6.519531 1.101562 " clip-rule="nonzero"/></clipPath><clipPath id="b6be512449"><path d="M 205.496094 9.121094 L 205.496094 21.097656 C 205.496094 23.222656 204.652344 25.261719 203.148438 26.765625 C 201.644531 28.269531 199.601562 29.113281 197.476562 29.113281 L 14.539062 29.113281 C 12.410156 29.113281 10.371094 28.269531 8.867188 26.765625 C 7.363281 25.261719 6.519531 23.222656 6.519531 21.097656 L 6.519531 9.121094 C 6.519531 6.992188 7.363281 4.953125 8.867188 3.449219 C 10.371094 1.945312 12.410156 1.101562 14.539062 1.101562 L 197.476562 1.101562 C 199.601562 1.101562 201.644531 1.945312 203.148438 3.449219 C 204.652344 4.953125 205.496094 6.992188 205.496094 9.121094 Z M 205.496094 9.121094 " clip-rule="nonzero"/></clipPath><clipPath id="e7f534a86a"><path d="M 28 5.726562 L 38 5.726562 L 38 21 L 28 21 Z M 28 5.726562 " clip-rule="nonzero"/></clipPath><clipPath id="0e9cccb9c2"><path d="M 23.550781 17 L 41.796875 17 L 41.796875 23.96875 L 23.550781 23.96875 Z M 23.550781 17 " clip-rule="nonzero"/></clipPath></defs><g clip-path="url(#c0c5974ba6)"><g clip-path="url(#c3fbf74f68)"><g transform="matrix(1, 0, 0, 1, 6, 1)"><g clip-path="url(#597f9f7886)"><g clip-path="url(#7da85aa331)"><g clip-path="url(#4d90d24ad6)"><path fill="#041e44" d="M 0.421875 0.101562 L 199.417969 0.101562 L 199.417969 28.121094 L 0.421875 28.121094 Z M 0.421875 0.101562 " fill-opacity="1" fill-rule="nonzero"/></g></g></g></g></g></g><g clip-path="url(#c7e1b64db3)"><g clip-path="url(#b6be512449)"><path stroke-linecap="butt" transform="matrix(0.72973, 0, 0, 0.72973, 6.518252, 1.100208)" fill="none" stroke-linejoin="miter" d="M 272.673342 10.991584 L 272.673342 27.403911 C 272.673342 30.315948 271.517092 33.110219 269.456184 35.171127 C 267.395275 37.232036 264.595651 38.388286 261.683614 38.388286 L 10.991481 38.388286 C 8.074091 38.388286 5.27982 37.232036 3.218911 35.171127 C 1.158003 33.110219 0.00175281 30.315948 0.00175281 27.403911 L 0.00175281 10.991584 C 0.00175281 8.074194 1.158003 5.279923 3.218911 3.219015 C 5.27982 1.158106 8.074091 0.00185614 10.991481 0.00185614 L 261.683614 0.00185614 C 264.595651 0.00185614 267.395275 1.158106 269.456184 3.219015 C 271.517092 5.279923 272.673342 8.074194 272.673342 10.991584 Z M 272.673342 10.991584 " stroke="#277ed0" stroke-width="2" stroke-opacity="1" stroke-miterlimit="4"/></g></g><g fill="#b4b4b4" fill-opacity="1"><g transform="translate(48.438001, 17.665073)"><g><path d="M 0.9375 0 L 0.9375 -7.703125 L 3.40625 -7.703125 L 3.40625 0 Z M 0.9375 0 "/></g></g></g><g fill="#b4b4b4" fill-opacity="1"><g transform="translate(52.789133, 17.665073)"><g><path d="M 7.4375 0 L 7.4375 -2.78125 C 7.4375 -3.125 7.445312 -3.472656 7.46875 -3.828125 C 7.5 -4.191406 7.53125 -4.492188 7.5625 -4.734375 C 7.59375 -4.984375 7.613281 -5.144531 7.625 -5.21875 L 7.578125 -5.21875 L 6.15625 0 L 4.21875 0 L 2.78125 -5.203125 L 2.734375 -5.203125 C 2.742188 -5.128906 2.765625 -4.972656 2.796875 -4.734375 C 2.835938 -4.492188 2.867188 -4.191406 2.890625 -3.828125 C 2.921875 -3.472656 2.9375 -3.125 2.9375 -2.78125 L 2.9375 0 L 0.671875 0 L 0.671875 -7.703125 L 4.15625 -7.703125 L 5.328125 -3.25 L 5.375 -3.25 L 6.515625 -7.703125 L 9.890625 -7.703125 L 9.890625 0 Z M 7.4375 0 "/></g></g></g><g fill="#b4b4b4" fill-opacity="1"><g transform="translate(63.348167, 17.665073)"><g><path d="M 5.140625 -7.703125 C 5.617188 -7.703125 6.046875 -7.585938 6.421875 -7.359375 C 6.796875 -7.140625 7.085938 -6.835938 7.296875 -6.453125 C 7.503906 -6.078125 7.609375 -5.648438 7.609375 -5.171875 L 7.609375 -5.015625 C 7.609375 -4.546875 7.503906 -4.113281 7.296875 -3.71875 C 7.085938 -3.332031 6.796875 -3.03125 6.421875 -2.8125 C 6.046875 -2.59375 5.617188 -2.484375 5.140625 -2.484375 L 3.296875 -2.484375 L 3.296875 0 L 0.828125 0 L 0.828125 -7.703125 Z M 3.296875 -4.28125 L 4.3125 -4.28125 C 4.570312 -4.28125 4.765625 -4.347656 4.890625 -4.484375 C 5.023438 -4.617188 5.09375 -4.800781 5.09375 -5.03125 L 5.09375 -5.125 C 5.09375 -5.363281 5.023438 -5.546875 4.890625 -5.671875 C 4.765625 -5.804688 4.570312 -5.875 4.3125 -5.875 L 3.296875 -5.875 Z M 3.296875 -4.28125 "/></g></g></g><g fill="#b4b4b4" fill-opacity="1"><g transform="translate(71.424042, 17.665073)"><g><path d="M 4.65625 -7.828125 C 5.976562 -7.828125 7 -7.488281 7.71875 -6.8125 C 8.445312 -6.132812 8.8125 -5.144531 8.8125 -3.84375 C 8.8125 -2.550781 8.445312 -1.5625 7.71875 -0.875 C 7 -0.195312 5.976562 0.140625 4.65625 0.140625 C 3.320312 0.140625 2.296875 -0.195312 1.578125 -0.875 C 0.859375 -1.550781 0.5 -2.539062 0.5 -3.84375 C 0.5 -5.15625 0.859375 -6.144531 1.578125 -6.8125 C 2.296875 -7.488281 3.320312 -7.828125 4.65625 -7.828125 Z M 4.65625 -5.984375 C 4.125 -5.984375 3.71875 -5.820312 3.4375 -5.5 C 3.164062 -5.175781 3.03125 -4.742188 3.03125 -4.203125 L 3.03125 -3.484375 C 3.03125 -2.941406 3.164062 -2.507812 3.4375 -2.1875 C 3.71875 -1.875 4.125 -1.71875 4.65625 -1.71875 C 5.1875 -1.71875 5.585938 -1.875 5.859375 -2.1875 C 6.140625 -2.507812 6.28125 -2.941406 6.28125 -3.484375 L 6.28125 -4.203125 C 6.28125 -4.742188 6.140625 -5.175781 5.859375 -5.5 C 5.585938 -5.820312 5.1875 -5.984375 4.65625 -5.984375 Z M 4.65625 -5.984375 "/></g></g></g><g fill="#b4b4b4" fill-opacity="1"><g transform="translate(80.741502, 17.665073)"><g><path d="M 8.140625 -5.34375 C 8.140625 -4.863281 8.007812 -4.429688 7.75 -4.046875 C 7.5 -3.671875 7.128906 -3.394531 6.640625 -3.21875 L 8.359375 0 L 5.578125 0 L 4.21875 -2.8125 L 3.296875 -2.8125 L 3.296875 0 L 0.828125 0 L 0.828125 -7.703125 L 5.53125 -7.703125 C 6.082031 -7.703125 6.554688 -7.59375 6.953125 -7.375 C 7.347656 -7.164062 7.644531 -6.878906 7.84375 -6.515625 C 8.039062 -6.148438 8.140625 -5.757812 8.140625 -5.34375 Z M 5.609375 -5.234375 C 5.609375 -5.429688 5.539062 -5.597656 5.40625 -5.734375 C 5.28125 -5.867188 5.117188 -5.9375 4.921875 -5.9375 L 3.296875 -5.9375 L 3.296875 -4.515625 L 4.921875 -4.515625 C 5.117188 -4.515625 5.28125 -4.582031 5.40625 -4.71875 C 5.539062 -4.863281 5.609375 -5.035156 5.609375 -5.234375 Z M 5.609375 -5.234375 "/></g></g></g><g fill="#b4b4b4" fill-opacity="1"><g transform="translate(89.343073, 17.665073)"><g><path d="M 5.265625 -5.734375 L 5.265625 0 L 2.78125 0 L 2.78125 -5.734375 L 0.25 -5.734375 L 0.25 -7.703125 L 7.78125 -7.703125 L 7.78125 -5.734375 Z M 5.265625 -5.734375 "/></g></g></g><g fill="#b4b4b4" fill-opacity="1"><g transform="translate(97.418948, 17.665073)"><g/></g></g><g fill="#b4b4b4" fill-opacity="1"><g transform="translate(101.143692, 17.665073)"><g><path d="M 5.953125 -7.703125 C 6.335938 -7.703125 6.691406 -7.617188 7.015625 -7.453125 C 7.335938 -7.296875 7.59375 -7.070312 7.78125 -6.78125 C 7.976562 -6.488281 8.078125 -6.164062 8.078125 -5.8125 C 8.078125 -4.863281 7.648438 -4.265625 6.796875 -4.015625 L 6.796875 -3.96875 C 7.765625 -3.75 8.25 -3.109375 8.25 -2.046875 C 8.25 -1.640625 8.148438 -1.28125 7.953125 -0.96875 C 7.753906 -0.664062 7.484375 -0.425781 7.140625 -0.25 C 6.804688 -0.0820312 6.429688 0 6.015625 0 L 0.828125 0 L 0.828125 -7.703125 Z M 3.296875 -4.703125 L 5 -4.703125 C 5.164062 -4.703125 5.300781 -4.757812 5.40625 -4.875 C 5.519531 -4.988281 5.578125 -5.128906 5.578125 -5.296875 L 5.578125 -5.421875 C 5.578125 -5.578125 5.519531 -5.710938 5.40625 -5.828125 C 5.289062 -5.941406 5.15625 -6 5 -6 L 3.296875 -6 Z M 3.296875 -1.796875 L 5.1875 -1.796875 C 5.34375 -1.796875 5.472656 -1.851562 5.578125 -1.96875 C 5.691406 -2.082031 5.75 -2.222656 5.75 -2.390625 L 5.75 -2.5 C 5.75 -2.675781 5.691406 -2.820312 5.578125 -2.9375 C 5.472656 -3.050781 5.34375 -3.109375 5.1875 -3.109375 L 3.296875 -3.109375 Z M 3.296875 -1.796875 "/></g></g></g><g fill="#b4b4b4" fill-opacity="1"><g transform="translate(109.845944, 17.665073)"><g><path d="M 0.828125 -7.703125 L 3.296875 -7.703125 L 3.296875 -1.96875 L 7.25 -1.96875 L 7.25 0 L 0.828125 0 Z M 0.828125 -7.703125 "/></g></g></g><g fill="#b4b4b4" fill-opacity="1"><g transform="translate(117.01577, 17.665073)"><g><path d="M 8.484375 -3.09375 C 8.484375 -2.039062 8.148438 -1.238281 7.484375 -0.6875 C 6.828125 -0.132812 5.890625 0.140625 4.671875 0.140625 C 3.441406 0.140625 2.492188 -0.132812 1.828125 -0.6875 C 1.160156 -1.238281 0.828125 -2.039062 0.828125 -3.09375 L 0.828125 -7.703125 L 3.296875 -7.703125 L 3.296875 -3.125 C 3.296875 -2.695312 3.410156 -2.351562 3.640625 -2.09375 C 3.878906 -1.84375 4.21875 -1.71875 4.65625 -1.71875 C 5.09375 -1.71875 5.425781 -1.847656 5.65625 -2.109375 C 5.894531 -2.367188 6.015625 -2.707031 6.015625 -3.125 L 6.015625 -7.703125 L 8.484375 -7.703125 Z M 8.484375 -3.09375 "/></g></g></g><g fill="#b4b4b4" fill-opacity="1"><g transform="translate(126.33323, 17.665073)"><g><path d="M 0.828125 -7.703125 L 7.484375 -7.703125 L 7.484375 -5.84375 L 3.296875 -5.84375 L 3.296875 -4.78125 L 6.875 -4.78125 L 6.875 -3.015625 L 3.296875 -3.015625 L 3.296875 -1.84375 L 7.5625 -1.84375 L 7.5625 0 L 0.828125 0 Z M 0.828125 -7.703125 "/></g></g></g><g fill="#b4b4b4" fill-opacity="1"><g transform="translate(134.409106, 17.665073)"><g><path d="M 5.953125 -7.703125 C 6.335938 -7.703125 6.691406 -7.617188 7.015625 -7.453125 C 7.335938 -7.296875 7.59375 -7.070312 7.78125 -6.78125 C 7.976562 -6.488281 8.078125 -6.164062 8.078125 -5.8125 C 8.078125 -4.863281 7.648438 -4.265625 6.796875 -4.015625 L 6.796875 -3.96875 C 7.765625 -3.75 8.25 -3.109375 8.25 -2.046875 C 8.25 -1.640625 8.148438 -1.28125 7.953125 -0.96875 C 7.753906 -0.664062 7.484375 -0.425781 7.140625 -0.25 C 6.804688 -0.0820312 6.429688 0 6.015625 0 L 0.828125 0 L 0.828125 -7.703125 Z M 3.296875 -4.703125 L 5 -4.703125 C 5.164062 -4.703125 5.300781 -4.757812 5.40625 -4.875 C 5.519531 -4.988281 5.578125 -5.128906 5.578125 -5.296875 L 5.578125 -5.421875 C 5.578125 -5.578125 5.519531 -5.710938 5.40625 -5.828125 C 5.289062 -5.941406 5.15625 -6 5 -6 L 3.296875 -6 Z M 3.296875 -1.796875 L 5.1875 -1.796875 C 5.34375 -1.796875 5.472656 -1.851562 5.578125 -1.96875 C 5.691406 -2.082031 5.75 -2.222656 5.75 -2.390625 L 5.75 -2.5 C 5.75 -2.675781 5.691406 -2.820312 5.578125 -2.9375 C 5.472656 -3.050781 5.34375 -3.109375 5.1875 -3.109375 L 3.296875 -3.109375 Z M 3.296875 -1.796875 "/></g></g></g><g fill="#b4b4b4" fill-opacity="1"><g transform="translate(143.111357, 17.665073)"><g><path d="M 0.828125 -7.703125 L 7.484375 -7.703125 L 7.484375 -5.84375 L 3.296875 -5.84375 L 3.296875 -4.78125 L 6.875 -4.78125 L 6.875 -3.015625 L 3.296875 -3.015625 L 3.296875 -1.84375 L 7.5625 -1.84375 L 7.5625 0 L 0.828125 0 Z M 0.828125 -7.703125 "/></g></g></g><g fill="#b4b4b4" fill-opacity="1"><g transform="translate(151.187233, 17.665073)"><g><path d="M 5.984375 0 L 5.65625 -1.078125 L 2.96875 -1.078125 L 2.640625 0 L 0.109375 0 L 2.921875 -7.703125 L 5.796875 -7.703125 L 8.609375 0 Z M 3.484375 -2.8125 L 5.140625 -2.8125 L 4.34375 -5.546875 L 4.296875 -5.546875 Z M 3.484375 -2.8125 "/></g></g></g><g fill="#b4b4b4" fill-opacity="1"><g transform="translate(159.889484, 17.665073)"><g><path d="M 7.4375 0 L 7.4375 -2.78125 C 7.4375 -3.125 7.445312 -3.472656 7.46875 -3.828125 C 7.5 -4.191406 7.53125 -4.492188 7.5625 -4.734375 C 7.59375 -4.984375 7.613281 -5.144531 7.625 -5.21875 L 7.578125 -5.21875 L 6.15625 0 L 4.21875 0 L 2.78125 -5.203125 L 2.734375 -5.203125 C 2.742188 -5.128906 2.765625 -4.972656 2.796875 -4.734375 C 2.835938 -4.492188 2.867188 -4.191406 2.890625 -3.828125 C 2.921875 -3.472656 2.9375 -3.125 2.9375 -2.78125 L 2.9375 0 L 0.671875 0 L 0.671875 -7.703125 L 4.15625 -7.703125 L 5.328125 -3.25 L 5.375 -3.25 L 6.515625 -7.703125 L 9.890625 -7.703125 L 9.890625 0 Z M 7.4375 0 "/></g></g></g><g fill="#b4b4b4" fill-opacity="1"><g transform="translate(170.448518, 17.665073)"><g/></g></g><g fill="#b4b4b4" fill-opacity="1"><g transform="translate(174.173262, 17.665073)"><g><path d="M 4.5 -7.828125 C 5.632812 -7.828125 6.535156 -7.539062 7.203125 -6.96875 C 7.867188 -6.40625 8.203125 -5.59375 8.203125 -4.53125 L 5.84375 -4.53125 C 5.84375 -4.976562 5.722656 -5.332031 5.484375 -5.59375 C 5.253906 -5.851562 4.921875 -5.984375 4.484375 -5.984375 C 3.984375 -5.984375 3.613281 -5.828125 3.375 -5.515625 C 3.144531 -5.203125 3.03125 -4.765625 3.03125 -4.203125 L 3.03125 -3.484375 C 3.03125 -2.929688 3.144531 -2.5 3.375 -2.1875 C 3.613281 -1.875 3.976562 -1.71875 4.46875 -1.71875 C 4.945312 -1.71875 5.304688 -1.835938 5.546875 -2.078125 C 5.796875 -2.328125 5.921875 -2.675781 5.921875 -3.125 L 8.203125 -3.125 C 8.203125 -2.070312 7.878906 -1.265625 7.234375 -0.703125 C 6.585938 -0.140625 5.675781 0.140625 4.5 0.140625 C 3.1875 0.140625 2.191406 -0.191406 1.515625 -0.859375 C 0.835938 -1.535156 0.5 -2.53125 0.5 -3.84375 C 0.5 -5.15625 0.835938 -6.144531 1.515625 -6.8125 C 2.191406 -7.488281 3.1875 -7.828125 4.5 -7.828125 Z M 4.5 -7.828125 "/></g></g></g><g fill="#b4b4b4" fill-opacity="1"><g transform="translate(182.875514, 17.665073)"><g><path d="M 4.0625 -7.828125 C 5.039062 -7.828125 5.847656 -7.628906 6.484375 -7.234375 C 7.117188 -6.835938 7.445312 -6.242188 7.46875 -5.453125 L 7.46875 -5.328125 L 5.140625 -5.328125 L 5.140625 -5.375 C 5.140625 -5.59375 5.054688 -5.773438 4.890625 -5.921875 C 4.734375 -6.078125 4.488281 -6.15625 4.15625 -6.15625 C 3.820312 -6.15625 3.566406 -6.101562 3.390625 -6 C 3.210938 -5.90625 3.125 -5.789062 3.125 -5.65625 C 3.125 -5.445312 3.242188 -5.296875 3.484375 -5.203125 C 3.722656 -5.109375 4.109375 -5.007812 4.640625 -4.90625 C 5.265625 -4.769531 5.773438 -4.632812 6.171875 -4.5 C 6.566406 -4.363281 6.910156 -4.140625 7.203125 -3.828125 C 7.503906 -3.515625 7.660156 -3.085938 7.671875 -2.546875 C 7.671875 -1.640625 7.363281 -0.960938 6.75 -0.515625 C 6.132812 -0.078125 5.3125 0.140625 4.28125 0.140625 C 3.082031 0.140625 2.148438 -0.0625 1.484375 -0.46875 C 0.816406 -0.875 0.484375 -1.585938 0.484375 -2.609375 L 2.8125 -2.609375 C 2.8125 -2.222656 2.910156 -1.960938 3.109375 -1.828125 C 3.316406 -1.703125 3.632812 -1.640625 4.0625 -1.640625 C 4.375 -1.640625 4.628906 -1.671875 4.828125 -1.734375 C 5.035156 -1.796875 5.140625 -1.929688 5.140625 -2.140625 C 5.140625 -2.328125 5.023438 -2.46875 4.796875 -2.5625 C 4.578125 -2.65625 4.207031 -2.753906 3.6875 -2.859375 C 3.0625 -2.992188 2.539062 -3.132812 2.125 -3.28125 C 1.71875 -3.425781 1.363281 -3.664062 1.0625 -4 C 0.757812 -4.34375 0.609375 -4.800781 0.609375 -5.375 C 0.609375 -6.21875 0.929688 -6.835938 1.578125 -7.234375 C 2.234375 -7.628906 3.0625 -7.828125 4.0625 -7.828125 Z M 4.0625 -7.828125 "/></g></g></g><g fill="#b4b4b4" fill-opacity="1"><g transform="translate(190.951389, 17.665073)"><g><path d="M 2.921875 0 L 0.1875 -7.703125 L 2.828125 -7.703125 L 4.375 -2.546875 L 4.421875 -2.546875 L 5.96875 -7.703125 L 8.5 -7.703125 L 5.78125 0 Z M 2.921875 0 "/></g></g></g><g clip-path="url(#e7f534a86a)"><path fill="#b4b4b4" d="M 33.664062 17.257812 L 33.664062 6.546875 C 33.664062 6.328125 33.578125 6.121094 33.425781 5.964844 C 33.269531 5.816406 33.0625 5.726562 32.84375 5.726562 C 32.628906 5.726562 32.421875 5.816406 32.265625 5.964844 C 32.109375 6.121094 32.027344 6.328125 32.027344 6.546875 L 32.027344 17.257812 C 32.027344 17.257812 30.464844 15.695312 29.59375 14.824219 C 29.4375 14.667969 29.230469 14.585938 29.011719 14.585938 C 28.796875 14.585938 28.585938 14.667969 28.433594 14.824219 C 28.113281 15.144531 28.113281 15.660156 28.433594 15.980469 L 32.296875 19.84375 C 32.441406 19.988281 32.636719 20.066406 32.84375 20.066406 C 33.050781 20.066406 33.246094 19.988281 33.394531 19.84375 L 37.257812 15.980469 C 37.574219 15.660156 37.574219 15.144531 37.257812 14.824219 C 37.101562 14.667969 36.894531 14.585938 36.675781 14.585938 C 36.460938 14.585938 36.253906 14.667969 36.097656 14.824219 C 35.222656 15.695312 33.664062 17.257812 33.664062 17.257812 Z M 33.664062 17.257812 " fill-opacity="1" fill-rule="evenodd"/></g><g clip-path="url(#0e9cccb9c2)"><path fill="#b4b4b4" d="M 23.550781 22.761719 C 23.550781 23.175781 23.714844 23.570312 24.007812 23.855469 C 24.300781 24.148438 24.695312 24.3125 25.101562 24.3125 L 40.589844 24.3125 C 41 24.3125 41.394531 24.148438 41.679688 23.855469 C 41.972656 23.5625 42.136719 23.171875 42.136719 22.761719 L 42.136719 18.078125 C 42.136719 17.625 41.769531 17.257812 41.320312 17.257812 C 41.101562 17.257812 40.894531 17.347656 40.738281 17.496094 C 40.585938 17.652344 40.5 17.859375 40.5 18.078125 L 40.5 21.90625 C 40.5 22.332031 40.15625 22.679688 39.726562 22.679688 L 25.964844 22.679688 C 25.535156 22.679688 25.1875 22.332031 25.1875 21.90625 L 25.1875 18.078125 C 25.1875 17.859375 25.101562 17.652344 24.949219 17.496094 C 24.796875 17.34375 24.585938 17.257812 24.371094 17.257812 C 23.917969 17.257812 23.550781 17.625 23.550781 18.078125 Z M 23.550781 22.761719 " fill-opacity="1" fill-rule="evenodd"/></g></svg>