<svg xmlns="http://www.w3.org/2000/svg" xmlns:xlink="http://www.w3.org/1999/xlink" width="288" zoomAndPan="magnify" viewBox="0 0 216 215.999996" height="288" preserveAspectRatio="xMidYMid meet" version="1.0"><defs><g/><clipPath id="b505d214e3"><path d="M 5.648438 2.929688 L 210.386719 2.929688 L 210.386719 174.882812 L 5.648438 174.882812 Z M 5.648438 2.929688 " clip-rule="nonzero"/></clipPath><clipPath id="cfd6d0b643"><path d="M 210.203125 11.171875 L 210.203125 166.640625 C 210.203125 168.824219 209.335938 170.921875 207.789062 172.46875 C 206.242188 174.015625 204.144531 174.882812 201.957031 174.882812 L 13.890625 174.882812 C 11.707031 174.882812 9.609375 174.015625 8.0625 172.46875 C 6.515625 170.921875 5.648438 168.824219 5.648438 166.640625 L 5.648438 11.171875 C 5.648438 8.988281 6.515625 6.890625 8.0625 5.34375 C 9.609375 3.796875 11.707031 2.929688 13.890625 2.929688 L 201.957031 2.929688 C 204.144531 2.929688 206.242188 3.796875 207.789062 5.34375 C 209.335938 6.890625 210.203125 8.988281 210.203125 11.171875 Z M 210.203125 11.171875 " clip-rule="nonzero"/></clipPath><clipPath id="1e7d78d791"><path d="M 0.648438 0.929688 L 205.238281 0.929688 L 205.238281 172.882812 L 0.648438 172.882812 Z M 0.648438 0.929688 " clip-rule="nonzero"/></clipPath><clipPath id="aec9a1855b"><path d="M 205.203125 9.171875 L 205.203125 164.640625 C 205.203125 166.824219 204.335938 168.921875 202.789062 170.46875 C 201.242188 172.015625 199.144531 172.882812 196.957031 172.882812 L 8.890625 172.882812 C 6.707031 172.882812 4.609375 172.015625 3.0625 170.46875 C 1.515625 168.921875 0.648438 166.824219 0.648438 164.640625 L 0.648438 9.171875 C 0.648438 6.988281 1.515625 4.890625 3.0625 3.34375 C 4.609375 1.796875 6.707031 0.929688 8.890625 0.929688 L 196.957031 0.929688 C 199.144531 0.929688 201.242188 1.796875 202.789062 3.34375 C 204.335938 4.890625 205.203125 6.988281 205.203125 9.171875 Z M 205.203125 9.171875 " clip-rule="nonzero"/></clipPath><clipPath id="1fe8bbed79"><rect x="0" width="206" y="0" height="173"/></clipPath><clipPath id="911fa019ed"><path d="M 5.726562 2.929688 L 210.320312 2.929688 L 210.320312 174.679688 L 5.726562 174.679688 Z M 5.726562 2.929688 " clip-rule="nonzero"/></clipPath><clipPath id="e82e7b6cf0"><path d="M 210.273438 11.171875 L 210.273438 166.636719 C 210.273438 168.820312 209.40625 170.917969 207.859375 172.464844 C 206.3125 174.011719 204.21875 174.878906 202.03125 174.878906 L 13.96875 174.878906 C 11.78125 174.878906 9.6875 174.011719 8.140625 172.464844 C 6.59375 170.917969 5.726562 168.820312 5.726562 166.636719 L 5.726562 11.171875 C 5.726562 8.988281 6.59375 6.890625 8.140625 5.34375 C 9.6875 3.796875 11.78125 2.929688 13.96875 2.929688 L 202.03125 2.929688 C 204.21875 2.929688 206.3125 3.796875 207.859375 5.34375 C 209.40625 6.890625 210.273438 8.988281 210.273438 11.171875 Z M 210.273438 11.171875 " clip-rule="nonzero"/></clipPath><clipPath id="a38a7df77c"><path d="M 28 7.683594 L 38 7.683594 L 38 23 L 28 23 Z M 28 7.683594 " clip-rule="nonzero"/></clipPath><clipPath id="7dc26db00f"><path d="M 23.253906 19 L 42.003906 19 L 42.003906 26.433594 L 23.253906 26.433594 Z M 23.253906 19 " clip-rule="nonzero"/></clipPath></defs><g clip-path="url(#b505d214e3)"><g clip-path="url(#cfd6d0b643)"><g transform="matrix(1, 0, 0, 1, 5, 2)"><g clip-path="url(#1fe8bbed79)"><g clip-path="url(#1e7d78d791)"><g clip-path="url(#aec9a1855b)"><path fill="#041e44" d="M 0.648438 0.929688 L 205.160156 0.929688 L 205.160156 172.882812 L 0.648438 172.882812 Z M 0.648438 0.929688 " fill-opacity="1" fill-rule="nonzero"/></g></g></g></g></g></g><g clip-path="url(#911fa019ed)"><g clip-path="url(#e82e7b6cf0)"><path stroke-linecap="butt" transform="matrix(0.75, 0, 0, 0.75, 5.72524, 2.929805)" fill="none" stroke-linejoin="miter" d="M 272.730947 10.989427 L 272.730947 218.275898 C 272.730947 221.187357 271.574697 223.984232 269.512197 226.046732 C 267.449697 228.109232 264.65803 229.265482 261.741363 229.265482 L 10.991348 229.265482 C 8.074681 229.265482 5.283014 228.109232 3.220514 226.046732 C 1.158014 223.984232 0.00176365 221.187357 0.00176365 218.275898 L 0.00176365 10.989427 C 0.00176365 8.077969 1.158014 5.281093 3.220514 3.218593 C 5.283014 1.156093 8.074681 -0.000156926 10.991348 -0.000156926 L 261.741363 -0.000156926 C 264.65803 -0.000156926 267.449697 1.156093 269.512197 3.218593 C 271.574697 5.281093 272.730947 8.077969 272.730947 10.989427 Z M 272.730947 10.989427 " stroke="#277ed0" stroke-width="2" stroke-opacity="1" stroke-miterlimit="4"/></g></g><g fill="#b4b4b4" fill-opacity="1"><g transform="translate(48.831916, 19.954804)"><g><path d="M 0.96875 0 L 0.96875 -7.90625 L 3.5 -7.90625 L 3.5 0 Z M 0.96875 0 "/></g></g></g><g fill="#b4b4b4" fill-opacity="1"><g transform="translate(53.303912, 19.954804)"><g><path d="M 7.640625 0 L 7.640625 -2.859375 C 7.640625 -3.203125 7.65625 -3.5625 7.6875 -3.9375 C 7.71875 -4.3125 7.742188 -4.625 7.765625 -4.875 C 7.796875 -5.125 7.816406 -5.285156 7.828125 -5.359375 L 7.78125 -5.359375 L 6.328125 0 L 4.328125 0 L 2.859375 -5.34375 L 2.8125 -5.34375 C 2.820312 -5.28125 2.84375 -5.125 2.875 -4.875 C 2.914062 -4.625 2.953125 -4.3125 2.984375 -3.9375 C 3.015625 -3.5625 3.03125 -3.203125 3.03125 -2.859375 L 3.03125 0 L 0.6875 0 L 0.6875 -7.90625 L 4.28125 -7.90625 L 5.46875 -3.34375 L 5.515625 -3.34375 L 6.703125 -7.90625 L 10.171875 -7.90625 L 10.171875 0 Z M 7.640625 0 "/></g></g></g><g fill="#b4b4b4" fill-opacity="1"><g transform="translate(64.156252, 19.954804)"><g><path d="M 5.296875 -7.90625 C 5.785156 -7.90625 6.21875 -7.789062 6.59375 -7.5625 C 6.976562 -7.34375 7.273438 -7.035156 7.484375 -6.640625 C 7.703125 -6.242188 7.8125 -5.800781 7.8125 -5.3125 L 7.8125 -5.15625 C 7.8125 -4.664062 7.703125 -4.222656 7.484375 -3.828125 C 7.273438 -3.429688 6.976562 -3.117188 6.59375 -2.890625 C 6.21875 -2.660156 5.785156 -2.546875 5.296875 -2.546875 L 3.390625 -2.546875 L 3.390625 0 L 0.84375 0 L 0.84375 -7.90625 Z M 3.390625 -4.40625 L 4.4375 -4.40625 C 4.707031 -4.40625 4.910156 -4.472656 5.046875 -4.609375 C 5.179688 -4.742188 5.25 -4.929688 5.25 -5.171875 L 5.25 -5.265625 C 5.25 -5.515625 5.179688 -5.703125 5.046875 -5.828125 C 4.910156 -5.960938 4.707031 -6.03125 4.4375 -6.03125 L 3.390625 -6.03125 Z M 3.390625 -4.40625 "/></g></g></g><g fill="#b4b4b4" fill-opacity="1"><g transform="translate(72.456457, 19.954804)"><g><path d="M 4.78125 -8.046875 C 6.144531 -8.046875 7.195312 -7.695312 7.9375 -7 C 8.6875 -6.300781 9.0625 -5.285156 9.0625 -3.953125 C 9.0625 -2.617188 8.6875 -1.601562 7.9375 -0.90625 C 7.195312 -0.207031 6.144531 0.140625 4.78125 0.140625 C 3.414062 0.140625 2.363281 -0.203125 1.625 -0.890625 C 0.882812 -1.585938 0.515625 -2.609375 0.515625 -3.953125 C 0.515625 -5.296875 0.882812 -6.3125 1.625 -7 C 2.363281 -7.695312 3.414062 -8.046875 4.78125 -8.046875 Z M 4.78125 -6.15625 C 4.238281 -6.15625 3.820312 -5.988281 3.53125 -5.65625 C 3.25 -5.320312 3.109375 -4.878906 3.109375 -4.328125 L 3.109375 -3.59375 C 3.109375 -3.03125 3.25 -2.582031 3.53125 -2.25 C 3.820312 -1.925781 4.238281 -1.765625 4.78125 -1.765625 C 5.320312 -1.765625 5.738281 -1.925781 6.03125 -2.25 C 6.320312 -2.582031 6.46875 -3.03125 6.46875 -3.59375 L 6.46875 -4.328125 C 6.46875 -4.878906 6.320312 -5.320312 6.03125 -5.65625 C 5.738281 -5.988281 5.320312 -6.15625 4.78125 -6.15625 Z M 4.78125 -6.15625 "/></g></g></g><g fill="#b4b4b4" fill-opacity="1"><g transform="translate(82.032735, 19.954804)"><g><path d="M 8.359375 -5.484375 C 8.359375 -5.003906 8.226562 -4.566406 7.96875 -4.171875 C 7.707031 -3.785156 7.328125 -3.5 6.828125 -3.3125 L 8.59375 0 L 5.734375 0 L 4.328125 -2.890625 L 3.390625 -2.890625 L 3.390625 0 L 0.84375 0 L 0.84375 -7.90625 L 5.6875 -7.90625 C 6.257812 -7.90625 6.742188 -7.796875 7.140625 -7.578125 C 7.546875 -7.359375 7.847656 -7.0625 8.046875 -6.6875 C 8.253906 -6.320312 8.359375 -5.921875 8.359375 -5.484375 Z M 5.765625 -5.375 C 5.765625 -5.582031 5.695312 -5.753906 5.5625 -5.890625 C 5.425781 -6.035156 5.257812 -6.109375 5.0625 -6.109375 L 3.390625 -6.109375 L 3.390625 -4.640625 L 5.0625 -4.640625 C 5.257812 -4.640625 5.425781 -4.710938 5.5625 -4.859375 C 5.695312 -5.003906 5.765625 -5.175781 5.765625 -5.375 Z M 5.765625 -5.375 "/></g></g></g><g fill="#b4b4b4" fill-opacity="1"><g transform="translate(90.873238, 19.954804)"><g><path d="M 5.40625 -5.890625 L 5.40625 0 L 2.859375 0 L 2.859375 -5.890625 L 0.265625 -5.890625 L 0.265625 -7.90625 L 8 -7.90625 L 8 -5.890625 Z M 5.40625 -5.890625 "/></g></g></g><g fill="#b4b4b4" fill-opacity="1"><g transform="translate(99.173443, 19.954804)"><g/></g></g><g fill="#b4b4b4" fill-opacity="1"><g transform="translate(103.001651, 19.954804)"><g><path d="M 6.125 -7.90625 C 6.519531 -7.90625 6.882812 -7.820312 7.21875 -7.65625 C 7.550781 -7.5 7.8125 -7.269531 8 -6.96875 C 8.195312 -6.664062 8.296875 -6.332031 8.296875 -5.96875 C 8.296875 -5 7.859375 -4.382812 6.984375 -4.125 L 6.984375 -4.078125 C 7.984375 -3.847656 8.484375 -3.191406 8.484375 -2.109375 C 8.484375 -1.691406 8.378906 -1.320312 8.171875 -1 C 7.972656 -0.6875 7.695312 -0.441406 7.34375 -0.265625 C 6.988281 -0.0859375 6.601562 0 6.1875 0 L 0.84375 0 L 0.84375 -7.90625 Z M 3.390625 -4.828125 L 5.140625 -4.828125 C 5.304688 -4.828125 5.445312 -4.882812 5.5625 -5 C 5.675781 -5.125 5.734375 -5.273438 5.734375 -5.453125 L 5.734375 -5.5625 C 5.734375 -5.726562 5.671875 -5.867188 5.546875 -5.984375 C 5.429688 -6.109375 5.296875 -6.171875 5.140625 -6.171875 L 3.390625 -6.171875 Z M 3.390625 -1.84375 L 5.328125 -1.84375 C 5.492188 -1.84375 5.628906 -1.898438 5.734375 -2.015625 C 5.847656 -2.140625 5.90625 -2.289062 5.90625 -2.46875 L 5.90625 -2.578125 C 5.90625 -2.753906 5.847656 -2.898438 5.734375 -3.015625 C 5.628906 -3.140625 5.492188 -3.203125 5.328125 -3.203125 L 3.390625 -3.203125 Z M 3.390625 -1.84375 "/></g></g></g><g fill="#b4b4b4" fill-opacity="1"><g transform="translate(111.945632, 19.954804)"><g><path d="M 0.84375 -7.90625 L 3.390625 -7.90625 L 3.390625 -2.03125 L 7.453125 -2.03125 L 7.453125 0 L 0.84375 0 Z M 0.84375 -7.90625 "/></g></g></g><g fill="#b4b4b4" fill-opacity="1"><g transform="translate(119.31462, 19.954804)"><g><path d="M 8.734375 -3.1875 C 8.734375 -2.101562 8.390625 -1.273438 7.703125 -0.703125 C 7.023438 -0.140625 6.054688 0.140625 4.796875 0.140625 C 3.535156 0.140625 2.5625 -0.140625 1.875 -0.703125 C 1.1875 -1.273438 0.84375 -2.101562 0.84375 -3.1875 L 0.84375 -7.90625 L 3.390625 -7.90625 L 3.390625 -3.21875 C 3.390625 -2.769531 3.507812 -2.414062 3.75 -2.15625 C 3.988281 -1.894531 4.332031 -1.765625 4.78125 -1.765625 C 5.238281 -1.765625 5.585938 -1.894531 5.828125 -2.15625 C 6.066406 -2.425781 6.1875 -2.78125 6.1875 -3.21875 L 6.1875 -7.90625 L 8.734375 -7.90625 Z M 8.734375 -3.1875 "/></g></g></g><g fill="#b4b4b4" fill-opacity="1"><g transform="translate(128.890898, 19.954804)"><g><path d="M 0.84375 -7.90625 L 7.6875 -7.90625 L 7.6875 -6.015625 L 3.390625 -6.015625 L 3.390625 -4.921875 L 7.078125 -4.921875 L 7.078125 -3.109375 L 3.390625 -3.109375 L 3.390625 -1.890625 L 7.78125 -1.890625 L 7.78125 0 L 0.84375 0 Z M 0.84375 -7.90625 "/></g></g></g><g fill="#b4b4b4" fill-opacity="1"><g transform="translate(137.191102, 19.954804)"><g><path d="M 6.125 -7.90625 C 6.519531 -7.90625 6.882812 -7.820312 7.21875 -7.65625 C 7.550781 -7.5 7.8125 -7.269531 8 -6.96875 C 8.195312 -6.664062 8.296875 -6.332031 8.296875 -5.96875 C 8.296875 -5 7.859375 -4.382812 6.984375 -4.125 L 6.984375 -4.078125 C 7.984375 -3.847656 8.484375 -3.191406 8.484375 -2.109375 C 8.484375 -1.691406 8.378906 -1.320312 8.171875 -1 C 7.972656 -0.6875 7.695312 -0.441406 7.34375 -0.265625 C 6.988281 -0.0859375 6.601562 0 6.1875 0 L 0.84375 0 L 0.84375 -7.90625 Z M 3.390625 -4.828125 L 5.140625 -4.828125 C 5.304688 -4.828125 5.445312 -4.882812 5.5625 -5 C 5.675781 -5.125 5.734375 -5.273438 5.734375 -5.453125 L 5.734375 -5.5625 C 5.734375 -5.726562 5.671875 -5.867188 5.546875 -5.984375 C 5.429688 -6.109375 5.296875 -6.171875 5.140625 -6.171875 L 3.390625 -6.171875 Z M 3.390625 -1.84375 L 5.328125 -1.84375 C 5.492188 -1.84375 5.628906 -1.898438 5.734375 -2.015625 C 5.847656 -2.140625 5.90625 -2.289062 5.90625 -2.46875 L 5.90625 -2.578125 C 5.90625 -2.753906 5.847656 -2.898438 5.734375 -3.015625 C 5.628906 -3.140625 5.492188 -3.203125 5.328125 -3.203125 L 3.390625 -3.203125 Z M 3.390625 -1.84375 "/></g></g></g><g fill="#b4b4b4" fill-opacity="1"><g transform="translate(146.135083, 19.954804)"><g><path d="M 0.84375 -7.90625 L 7.6875 -7.90625 L 7.6875 -6.015625 L 3.390625 -6.015625 L 3.390625 -4.921875 L 7.078125 -4.921875 L 7.078125 -3.109375 L 3.390625 -3.109375 L 3.390625 -1.890625 L 7.78125 -1.890625 L 7.78125 0 L 0.84375 0 Z M 0.84375 -7.90625 "/></g></g></g><g fill="#b4b4b4" fill-opacity="1"><g transform="translate(154.435288, 19.954804)"><g><path d="M 6.15625 0 L 5.8125 -1.109375 L 3.046875 -1.109375 L 2.71875 0 L 0.109375 0 L 3 -7.90625 L 5.953125 -7.90625 L 8.84375 0 Z M 3.578125 -2.890625 L 5.296875 -2.890625 L 4.46875 -5.703125 L 4.421875 -5.703125 Z M 3.578125 -2.890625 "/></g></g></g><g fill="#b4b4b4" fill-opacity="1"><g transform="translate(163.379268, 19.954804)"><g><path d="M 7.640625 0 L 7.640625 -2.859375 C 7.640625 -3.203125 7.65625 -3.5625 7.6875 -3.9375 C 7.71875 -4.3125 7.742188 -4.625 7.765625 -4.875 C 7.796875 -5.125 7.816406 -5.285156 7.828125 -5.359375 L 7.78125 -5.359375 L 6.328125 0 L 4.328125 0 L 2.859375 -5.34375 L 2.8125 -5.34375 C 2.820312 -5.28125 2.84375 -5.125 2.875 -4.875 C 2.914062 -4.625 2.953125 -4.3125 2.984375 -3.9375 C 3.015625 -3.5625 3.03125 -3.203125 3.03125 -2.859375 L 3.03125 0 L 0.6875 0 L 0.6875 -7.90625 L 4.28125 -7.90625 L 5.46875 -3.34375 L 5.515625 -3.34375 L 6.703125 -7.90625 L 10.171875 -7.90625 L 10.171875 0 Z M 7.640625 0 "/></g></g></g><g fill="#b4b4b4" fill-opacity="1"><g transform="translate(174.231608, 19.954804)"><g/></g></g><g fill="#b4b4b4" fill-opacity="1"><g transform="translate(178.059817, 19.954804)"><g><path d="M 4.625 -8.046875 C 5.789062 -8.046875 6.710938 -7.753906 7.390625 -7.171875 C 8.078125 -6.585938 8.421875 -5.75 8.421875 -4.65625 L 6 -4.65625 C 6 -5.113281 5.878906 -5.476562 5.640625 -5.75 C 5.398438 -6.019531 5.054688 -6.15625 4.609375 -6.15625 C 4.097656 -6.15625 3.71875 -5.992188 3.46875 -5.671875 C 3.226562 -5.347656 3.109375 -4.898438 3.109375 -4.328125 L 3.109375 -3.59375 C 3.109375 -3.019531 3.226562 -2.570312 3.46875 -2.25 C 3.71875 -1.925781 4.09375 -1.765625 4.59375 -1.765625 C 5.082031 -1.765625 5.453125 -1.890625 5.703125 -2.140625 C 5.953125 -2.390625 6.078125 -2.742188 6.078125 -3.203125 L 8.421875 -3.203125 C 8.421875 -2.128906 8.085938 -1.300781 7.421875 -0.71875 C 6.765625 -0.144531 5.832031 0.140625 4.625 0.140625 C 3.269531 0.140625 2.242188 -0.203125 1.546875 -0.890625 C 0.859375 -1.585938 0.515625 -2.609375 0.515625 -3.953125 C 0.515625 -5.304688 0.859375 -6.328125 1.546875 -7.015625 C 2.242188 -7.703125 3.269531 -8.046875 4.625 -8.046875 Z M 4.625 -8.046875 "/></g></g></g><g fill="#b4b4b4" fill-opacity="1"><g transform="translate(187.003798, 19.954804)"><g><path d="M 4.171875 -8.046875 C 5.179688 -8.046875 6.007812 -7.835938 6.65625 -7.421875 C 7.3125 -7.015625 7.648438 -6.410156 7.671875 -5.609375 L 7.671875 -5.46875 L 5.296875 -5.46875 L 5.296875 -5.515625 C 5.296875 -5.742188 5.207031 -5.9375 5.03125 -6.09375 C 4.863281 -6.25 4.609375 -6.328125 4.265625 -6.328125 C 3.929688 -6.328125 3.671875 -6.273438 3.484375 -6.171875 C 3.304688 -6.078125 3.21875 -5.957031 3.21875 -5.8125 C 3.21875 -5.601562 3.335938 -5.445312 3.578125 -5.34375 C 3.828125 -5.25 4.222656 -5.144531 4.765625 -5.03125 C 5.410156 -4.90625 5.9375 -4.769531 6.34375 -4.625 C 6.75 -4.488281 7.101562 -4.257812 7.40625 -3.9375 C 7.71875 -3.613281 7.878906 -3.175781 7.890625 -2.625 C 7.890625 -1.6875 7.570312 -0.988281 6.9375 -0.53125 C 6.300781 -0.0820312 5.457031 0.140625 4.40625 0.140625 C 3.164062 0.140625 2.203125 -0.0664062 1.515625 -0.484375 C 0.835938 -0.898438 0.5 -1.628906 0.5 -2.671875 L 2.890625 -2.671875 C 2.890625 -2.273438 2.992188 -2.007812 3.203125 -1.875 C 3.410156 -1.738281 3.734375 -1.671875 4.171875 -1.671875 C 4.492188 -1.671875 4.757812 -1.707031 4.96875 -1.78125 C 5.1875 -1.851562 5.296875 -1.992188 5.296875 -2.203125 C 5.296875 -2.398438 5.175781 -2.546875 4.9375 -2.640625 C 4.707031 -2.734375 4.328125 -2.832031 3.796875 -2.9375 C 3.148438 -3.082031 2.613281 -3.226562 2.1875 -3.375 C 1.769531 -3.519531 1.40625 -3.765625 1.09375 -4.109375 C 0.78125 -4.460938 0.625 -4.929688 0.625 -5.515625 C 0.625 -6.378906 0.957031 -7.015625 1.625 -7.421875 C 2.300781 -7.835938 3.148438 -8.046875 4.171875 -8.046875 Z M 4.171875 -8.046875 "/></g></g></g><g fill="#b4b4b4" fill-opacity="1"><g transform="translate(195.304002, 19.954804)"><g><path d="M 3 0 L 0.203125 -7.90625 L 2.90625 -7.90625 L 4.5 -2.625 L 4.546875 -2.625 L 6.140625 -7.90625 L 8.734375 -7.90625 L 5.953125 0 Z M 3 0 "/></g></g></g><g clip-path="url(#a38a7df77c)"><path fill="#b4b4b4" d="M 33.648438 19.535156 L 33.648438 8.527344 C 33.648438 8.304688 33.558594 8.089844 33.402344 7.929688 C 33.242188 7.777344 33.027344 7.683594 32.804688 7.683594 C 32.582031 7.683594 32.367188 7.777344 32.210938 7.929688 C 32.050781 8.089844 31.964844 8.304688 31.964844 8.527344 L 31.964844 19.535156 C 31.964844 19.535156 30.359375 17.929688 29.460938 17.035156 C 29.304688 16.875 29.089844 16.789062 28.867188 16.789062 C 28.644531 16.789062 28.429688 16.875 28.269531 17.035156 C 27.945312 17.363281 27.945312 17.894531 28.269531 18.222656 L 32.242188 22.191406 C 32.390625 22.34375 32.589844 22.425781 32.804688 22.425781 C 33.019531 22.425781 33.21875 22.34375 33.371094 22.191406 L 37.339844 18.222656 C 37.667969 17.894531 37.667969 17.363281 37.339844 17.035156 C 37.179688 16.875 36.96875 16.789062 36.742188 16.789062 C 36.519531 16.789062 36.308594 16.875 36.148438 17.035156 C 35.246094 17.929688 33.648438 19.535156 33.648438 19.535156 Z M 33.648438 19.535156 " fill-opacity="1" fill-rule="evenodd"/></g><g clip-path="url(#7dc26db00f)"><path fill="#b4b4b4" d="M 23.253906 25.195312 C 23.253906 25.617188 23.421875 26.023438 23.722656 26.316406 C 24.023438 26.617188 24.429688 26.785156 24.847656 26.785156 L 40.765625 26.785156 C 41.1875 26.785156 41.59375 26.617188 41.886719 26.316406 C 42.1875 26.019531 42.355469 25.613281 42.355469 25.195312 L 42.355469 20.378906 C 42.355469 19.914062 41.980469 19.535156 41.515625 19.535156 C 41.292969 19.535156 41.078125 19.628906 40.917969 19.78125 C 40.761719 19.941406 40.671875 20.15625 40.671875 20.378906 L 40.671875 24.3125 C 40.671875 24.753906 40.320312 25.109375 39.878906 25.109375 L 25.734375 25.109375 C 25.292969 25.109375 24.9375 24.753906 24.9375 24.3125 L 24.9375 20.378906 C 24.9375 20.15625 24.847656 19.941406 24.691406 19.78125 C 24.53125 19.625 24.320312 19.535156 24.097656 19.535156 C 23.632812 19.535156 23.253906 19.914062 23.253906 20.378906 Z M 23.253906 25.195312 " fill-opacity="1" fill-rule="evenodd"/></g><path stroke-linecap="round" transform="matrix(0.75, 0, 0, 0.75, 13.584441, 37.895443)" fill="none" stroke-linejoin="miter" d="M 0.501995 0.498784 L 255.882219 0.498784 " stroke="#b4b4b4" stroke-width="1" stroke-opacity="1" stroke-miterlimit="4"/></svg>